<svg xmlns="http://www.w3.org/2000/svg" xmlns:xlink="http://www.w3.org/1999/xlink" viewBox="0 0 106 101.33"><defs><style>.cls-1{mask:url(#mask);filter:url(#luminosity-noclip-2);}.cls-2{mix-blend-mode:multiply;fill:url(#linear-gradient);}.cls-3{fill:#ffdf4f;}.cls-4{fill:#d3b94f;}.cls-5{opacity:0.2;}.cls-6{fill:#007e93;}.cls-7{fill:#11aaba;}.cls-8{fill:#20cbd3;}.cls-9{fill:#3ee5e5;}.cls-10{fill:#a6f2ff;}.cls-11{fill:#84ecf7;}.cls-12{fill:#0d7024;}.cls-13{fill:#03841f;}.cls-14{fill:#04a02c;}.cls-15{fill:#00ba35;}.cls-16{fill:#70ff61;}.cls-17{fill:#4fdd3a;}.cls-18{fill:#065e1d;}.cls-19{mask:url(#mask-2);}.cls-20{fill:url(#linear-gradient-2);}.cls-21{fill:#fff;opacity:0.7;}.cls-22{filter:url(#luminosity-noclip);}</style><filter id="luminosity-noclip" x="25.83" y="-7891" width="56.31" height="32766" filterUnits="userSpaceOnUse" color-interpolation-filters="sRGB"><feFlood flood-color="#fff" result="bg"/><feBlend in="SourceGraphic" in2="bg"/></filter><mask id="mask" x="25.83" y="-7891" width="56.31" height="32766" maskUnits="userSpaceOnUse"><g class="cls-22"/></mask><linearGradient id="linear-gradient" x1="37.58" y1="39.5" x2="86.18" y2="77.31" gradientUnits="userSpaceOnUse"><stop offset="0"/><stop offset="0.12" stop-color="#030303"/><stop offset="0.23" stop-color="#0e0e0e"/><stop offset="0.33" stop-color="#202020"/><stop offset="0.43" stop-color="#393939"/><stop offset="0.53" stop-color="#5a5a5a"/><stop offset="0.61" stop-color="#7a7a7a"/><stop offset="1" stop-color="#fff"/></linearGradient><filter id="luminosity-noclip-2" x="25.83" y="24.2" width="56.31" height="56.38" filterUnits="userSpaceOnUse" color-interpolation-filters="sRGB"><feFlood flood-color="#fff" result="bg"/><feBlend in="SourceGraphic" in2="bg"/></filter><mask id="mask-2" x="25.83" y="24.2" width="56.31" height="56.38" maskUnits="userSpaceOnUse"><g class="cls-1"><path class="cls-2" d="M61.47,24.2A28.75,28.75,0,0,1,25.83,59.89,28.74,28.74,0,1,0,61.47,24.2Z"/></g></mask><linearGradient id="linear-gradient-2" x1="37.58" y1="39.5" x2="86.18" y2="77.31" gradientUnits="userSpaceOnUse"><stop offset="0"/><stop offset="0.57"/><stop offset="0.61"/><stop offset="1" stop-color="#404040"/></linearGradient></defs><g id="Layer_2" data-name="Layer 2"><path class="cls-3" d="M33.58,20.81a4.86,4.86,0,1,1-4.86-4.87A4.86,4.86,0,0,1,33.58,20.81Z"/><path class="cls-4" d="M28.21,18.54a.65.65,0,1,1-.65-.65A.65.65,0,0,1,28.21,18.54Z"/><path class="cls-4" d="M26.93,21.71a.87.87,0,1,1-.87-.87A.87.87,0,0,1,26.93,21.71Z"/><path class="cls-4" d="M32.42,21.78a.69.69,0,0,1-1.38,0,.69.69,0,0,1,1.38,0Z"/><path class="cls-4" d="M30.1,24a.69.69,0,1,1-.69-.69A.69.69,0,0,1,30.1,24Z"/><path class="cls-4" d="M31.05,18.86a.39.39,0,1,1-.77,0,.39.39,0,0,1,.77,0Z"/><path class="cls-4" d="M29,20.76a.39.39,0,1,1-.38-.39A.39.39,0,0,1,29,20.76Z"/><path class="cls-5" d="M29.92,16.12a4.85,4.85,0,0,1-3.52,8.21,4.92,4.92,0,0,1-1.22-.16,4.86,4.86,0,1,0,4.74-8Z"/><path class="cls-6" d="M30,68.5A28.67,28.67,0,0,0,53.34,80.58a29.75,29.75,0,0,0,4-.29,80,80,0,0,1-13.65-9.13C40.38,68.23,34.7,67.24,30,68.5Z"/><path class="cls-7" d="M80.12,62.24c-7.94,5.7-15.64,12.67-25.83,5.66-6.5-4.07-11.38-10.59-19.51-11.4a32.42,32.42,0,0,0-9.74.28A28.64,28.64,0,0,0,30,68.5c4.75-1.26,10.43-.27,13.77,2.66a80,80,0,0,0,13.65,9.13A28.78,28.78,0,0,0,80.12,62.24Z"/><path class="cls-8" d="M34.78,56.5c8.13.81,13,7.33,19.51,11.4,10.19,7,17.89,0,25.83-5.66a28.85,28.85,0,0,0,1-17.92c-.26.25-.52.51-.76.78-14.64,16.28-31.72,8.14-48-2.44a8.66,8.66,0,0,0-5.81-1.17,28.58,28.58,0,0,0-1.92,10.32,29.07,29.07,0,0,0,.43,5A32.42,32.42,0,0,1,34.78,56.5Z"/><path class="cls-9" d="M50.23,41c-4.88-3.26-7.32-9-11.39-10.58a16.54,16.54,0,0,0-3.46-1.09,28.87,28.87,0,0,0-8.85,12.13,8.66,8.66,0,0,1,5.81,1.17c16.26,10.58,33.34,18.72,48,2.44.24-.27.5-.53.76-.78a28.71,28.71,0,0,0-7.54-12.95C66.92,37.85,59.52,46,50.23,41Z"/><path class="cls-10" d="M65.68,28c.6-.4,1.18-.82,1.75-1.25a28.49,28.49,0,0,0-12.9-3.67c.21.53.4,1.09.58,1.67C55.92,27.19,61.61,29.63,65.68,28Z"/><path class="cls-11" d="M65.68,28c-4.07,1.63-9.76-.81-10.57-3.25-.18-.58-.37-1.14-.58-1.67-.39,0-.79,0-1.19,0a28.63,28.63,0,0,0-18,6.31,16.54,16.54,0,0,1,3.46,1.09c4.07,1.62,6.51,7.32,11.39,10.58,9.29,5,16.69-3.18,23.31-9.66a28.8,28.8,0,0,0-6.11-4.62C66.86,27.18,66.28,27.6,65.68,28Z"/><path class="cls-12" d="M56.7,65.52a10.1,10.1,0,0,0,.47,2.61c.37.57-.19,3.25.75,3.06A3.67,3.67,0,0,0,61,69.13c1.13-1.87,2.37-3.18,2.75-4.24a1.6,1.6,0,0,0,.06-.4A13.66,13.66,0,0,1,56.7,65.52Z"/><path class="cls-13" d="M47.45,52.89a2.94,2.94,0,0,0,.12,2.77,4.68,4.68,0,0,0,5,2.18c2.31-.69,1.56.37,2.37.62s.19-.06.06,1.69.93,2.62,1.31,3.55a9,9,0,0,1,.34,1.82,13.66,13.66,0,0,0,7.14-1c.08-1.21-.72-3.36,0-4.53s1.18-.62,1.93-1.87l.75-1.25a5.89,5.89,0,0,0-.38-1.5l-1,.19a1,1,0,0,1-.47,0C59,56.56,53.21,55.49,47.45,52.89Z"/><path class="cls-14" d="M62.84,53.6c-.75-.81-1.18-4.68-1.37-4.81s-3,.19-4,.19-1.31-1.81-1.93-2.18l-.62-.38a8.11,8.11,0,0,1-2.75,1.06l-.62.13c-.62.12-.87,1.31-.87,1.56a7.71,7.71,0,0,0-3.24,3.72c5.76,2.6,11.54,3.67,17.23,2.61C64,55.28,63.46,54.27,62.84,53.6Z"/><path class="cls-14" d="M72.45,52.61a8.08,8.08,0,0,0,.49,2.49l.31.18A4.14,4.14,0,0,0,74.55,57v-.94a10,10,0,0,1,.13-2.24,4.73,4.73,0,0,1,.81-1.63c.44-.49.87-1,1.12-1s.5.87.75,1.12A4,4,0,0,1,78,53.47a1.26,1.26,0,0,0,.69.69l.25.06a13.86,13.86,0,0,0,.62,2.12l.06.31c.07.32-.06,2.25,0,2.56s.44,1.56.88,1.81l.06,0c.29-.84.54-1.7.75-2.57-.17-.41-.35-.92-.44-1.14s-.25-1.18-.43-1.62-1.13-1.44-.5-1.44,1.24.07,1.43.63l.19.56h.3c.12-1,.2-1.93.23-2.91-.3-.31-.86-.69-.47-1a2.38,2.38,0,0,1,.48-.23,28.72,28.72,0,0,0-.73-6.13A36,36,0,0,1,72.45,52.61Z"/><path class="cls-15" d="M51.62,44.36l-.12.25-.13.25a2.79,2.79,0,0,0,1,2l.25-.06a8.16,8.16,0,0,0,1.75-1.31,2.53,2.53,0,0,1,.63-.71,21.94,21.94,0,0,1-2.25-.6A3,3,0,0,1,51.62,44.36Z"/><path class="cls-16" d="M65.2,37.84a26.56,26.56,0,0,0,9.5-4.61,1.16,1.16,0,0,0-.39-.16,13.9,13.9,0,0,0-1.69.44c-.25.06-.56,0-.56-.5s-.31-1.31-.81-1.19a19.47,19.47,0,0,0-3.11,1.06c-.25.25-.88.82-.88,1.25s.38.94.19.88l-.19-.07c-.17,0-.56-.44-.87-1.06h-.62a2.43,2.43,0,0,0-.56,1.34.57.57,0,0,1-.31.63,7.38,7.38,0,0,1-1.25.09,3.73,3.73,0,0,0-1.87.81l-.12.19-.13.19a1.23,1.23,0,0,1-1-.31c-.16-.21.25-.58.9-.82l-.31-.18c-.31-.19-2.12-1.06-2.74-.88l-.63.19a7,7,0,0,0-2.27,1.25,7.72,7.72,0,0,0-.51,1A19.93,19.93,0,0,0,65.2,37.84Z"/><path class="cls-17" d="M74.7,33.23a26.56,26.56,0,0,1-9.5,4.61A19.93,19.93,0,0,1,55,37.35c-.11.25-.23.52-.33.78l.06.49c.06.5.31,1.81-.12,2l-.44.19a5.54,5.54,0,0,0-1.37,1.56A1.58,1.58,0,0,0,53,43.68c.13.2,0,.38-.28.5a21.94,21.94,0,0,0,2.25.6.76.76,0,0,1,.49-.23,2,2,0,0,1,.58.44,17.62,17.62,0,0,0,4.25.18c5.74-.88,11.95-5.59,18-7.78A29.36,29.36,0,0,0,76.06,34C75.73,33.9,75.12,33.47,74.7,33.23Z"/><path class="cls-15" d="M60.32,45.17A17.62,17.62,0,0,1,56.07,45c.36.34.76.78.91.93s.31.94,1.19.75l.87-.18c.58-.11,1.11,0,1.18.18s.69.43,1.37.5l.38-.12c.37-.13.68.56.5.81l-.19.25a23,23,0,0,0,1.43,4.68L64,53c.31.19.68,1.81.93,1.75s1.49-.12,1.87-.56l.37-.44c1-1,1.54-2.14,1.28-2.46s-1.14-.26-2,.15L66.39,51c-.12-.37-1.12-2-.5-2.06s1.56.75,1.94,1a4.31,4.31,0,0,0,1.74.75,2.38,2.38,0,0,1,1.5.5l.12.25c.17.2.56.06.87-.32l.19.32a5.15,5.15,0,0,1,.2,1.13,36,36,0,0,0,9-7.37,28.84,28.84,0,0,0-3.1-7.85C72.27,39.58,66.06,44.29,60.32,45.17Z"/><path class="cls-14" d="M25.2,46.35c-.15.77-.27,1.55-.35,2.34.5.81,1.23,1.55,1.6,2.29s.06,1.31.31,1.93a6,6,0,0,0,.62,1.44c.19.12,1.06.37,1.31.12a1.44,1.44,0,0,1,1.25-.12,2,2,0,0,1,1.12,1.12c.13.56-.06.69.75.87s-.5-1.49-.13-1.93,1-.63.32-.81a4.34,4.34,0,0,1-2-1,8.76,8.76,0,0,1-.56-2.06c-.12-.81-.44-1.5.06-1.93a1.66,1.66,0,0,1,1.69-.5l.74.18c.65.38,1,.92.88,1.19l.49.62c.5.63.63,1.31.75,1a10.24,10.24,0,0,0,.13-2c0-.32-.25-.5.62-1.25a4.33,4.33,0,0,1,1.5-1.06,2.86,2.86,0,0,1,.68-.21c-.62-.46-1.25-.93-1.86-1.42C32.94,43.53,28.58,44.1,25.2,46.35Z"/><path class="cls-17" d="M42,33.2c-.75-.07-2.37.06-3.31-.88a3.35,3.35,0,0,0-2.86-.87c-.31.19-1.13.44-1.13.69s.69,1,.5,1.12l-.18.12a3.72,3.72,0,0,0-1.37.38H33.3c.38.68.4,1.15,0,1a23.68,23.68,0,0,0-2.71-.53h0A29,29,0,0,0,28,38.35c2.11-.09,4.31.31,6.31.31a17.89,17.89,0,0,1,7.6,1.16h0c-.06-.5-.06-1.5-.68-1.81a4.5,4.5,0,0,0-2.43-.12c-.75.12-1.5.06-1.19-.57s1.31-1.93,2.37-1.24a13,13,0,0,1,1.81,1.68,8.5,8.5,0,0,0,1.93,1.06c.31,0,1.06.38,1.43.25s1.31-.06,1.56-.75-.31-.31.94-1.49,1.29-.73,2.07-1.36c-2.38-1-4.73-2-7.1-2.92C42.52,32.91,42.35,33.23,42,33.2Z"/><path class="cls-16" d="M51.31,33.07a8.19,8.19,0,0,0,.13-1.74c-.13-.38.37-.94-.63-.94s-3.8.19-4.23.12-3.68.75-3.8,1.13c-.06.18-.08.56-.17.9,2.37.89,4.72,2,7.1,2.92l.23-.2A4,4,0,0,0,51.31,33.07Z"/><path class="cls-15" d="M34.3,38.66c-2,0-4.2-.4-6.31-.31a28.77,28.77,0,0,0-2.79,8c3.38-2.25,7.74-2.82,9.92-1.18.61.49,1.24,1,1.86,1.42a1.1,1.1,0,0,0,.81-.42,1.51,1.51,0,0,0,.13-1.43c-.13-.44-.5-.63.87-.94s2.24-.37,2.37-.68.43-1.19.62-1.63a3.72,3.72,0,0,0,.12-1.67A17.89,17.89,0,0,0,34.3,38.66Z"/><path class="cls-12" d="M33.33,57.92c.05.36.11.81.16,1.23l-.37.19a3.88,3.88,0,0,0-1.19,1.31,3.07,3.07,0,0,0,.19,1.62c.19.44,1,1.81,1.12,2s.31.93.75.93a2.45,2.45,0,0,1,1.43.56,4.08,4.08,0,0,1,.76,2c1.85-.13,3.91.23,5.44.23l.37.17c-.06-.16,0-.28.16-.5.38-.44,1.5,0,1.62-1s.56-1,.25-1.94-.5-.93-.37-1.56.19-.43.81-1.24c.15-.2.25-.35.34-.48a45.29,45.29,0,0,0-8.87-3.22A9.83,9.83,0,0,0,33.33,57.92Z"/><path class="cls-13" d="M43.21,59a17.26,17.26,0,0,0-2.43-.25,1.75,1.75,0,0,1-1.37-1.38c-.19-.81-.25-1.37-.81-1.74s-2.37-.69-2.68-.94a1.89,1.89,0,0,0-1.43-.25l-.44.13A5.22,5.22,0,0,1,33,55.66l-.18.37c-.19.37-.38.31-.44.75.41-.07.79.1.84.37s.07.42.12.77a9.83,9.83,0,0,1,2.6.28,45.29,45.29,0,0,1,8.87,3.22.83.83,0,0,0,.09-1A2.78,2.78,0,0,0,43.21,59Z"/><path class="cls-18" d="M36.18,67.74a.19.19,0,0,1,0,.08,10.27,10.27,0,0,0-.44,2.56c0,.69.19,2.12.25,2.62s1.62,1.56,1.62,1.75a8.31,8.31,0,0,1-.29.81c.52.35,1.06.68,1.6,1h0a6.68,6.68,0,0,1,.5-1.69c.25-.68-.12-.56-.31-1.18s.37-1.31.5-1.5l.12-.19c.38-.27,1-.67,1.37-.87l.07-.31c.06-.32.37-.44.87-.81s.5-.63.25-1.25c-.12-.31-.24-.48-.29-.62L41.62,68C40.09,68,38,67.61,36.18,67.74Z"/><g class="cls-19"><path class="cls-20" d="M61.47,24.2A28.75,28.75,0,0,1,25.83,59.89,28.74,28.74,0,1,0,61.47,24.2Z"/></g><path class="cls-21" d="M46,29.66c.87,1.15,0,3.29-2,4.79s-4.29,1.78-5.15.64,0-3.29,2-4.78S45.12,28.52,46,29.66Z"/></g></svg>