<svg xmlns="http://www.w3.org/2000/svg" xmlns:xlink="http://www.w3.org/1999/xlink" viewBox="0 0 106 101.33"><defs><style>.cls-1{mask:url(#mask);filter:url(#luminosity-noclip-2);}.cls-2{mix-blend-mode:multiply;fill:url(#linear-gradient);}.cls-3{fill:#edb656;}.cls-4{opacity:0.2;}.cls-5{fill:#0cb0c1;}.cls-6{fill:#ffd685;}.cls-7{fill:#d3b94f;}.cls-8{fill:#d69630;}.cls-9{fill:#007272;}.cls-10{mask:url(#mask-2);}.cls-11{fill:url(#linear-gradient-2);}.cls-12{fill:#fff;opacity:0.7;}.cls-13{filter:url(#luminosity-noclip);}</style><filter id="luminosity-noclip" x="26.89" y="-7891" width="56.38" height="32766" filterUnits="userSpaceOnUse" color-interpolation-filters="sRGB"><feFlood flood-color="#fff" result="bg"/><feBlend in="SourceGraphic" in2="bg"/></filter><mask id="mask" x="26.89" y="-7891" width="56.38" height="32766" maskUnits="userSpaceOnUse"><g class="cls-13"/></mask><linearGradient id="linear-gradient" x1="38.65" y1="35.63" x2="87.3" y2="73.48" gradientUnits="userSpaceOnUse"><stop offset="0"/><stop offset="0.12" stop-color="#030303"/><stop offset="0.23" stop-color="#0e0e0e"/><stop offset="0.33" stop-color="#202020"/><stop offset="0.43" stop-color="#393939"/><stop offset="0.53" stop-color="#5a5a5a"/><stop offset="0.61" stop-color="#7a7a7a"/><stop offset="1" stop-color="#fff"/></linearGradient><filter id="luminosity-noclip-2" x="26.89" y="20.35" width="56.38" height="56.38" filterUnits="userSpaceOnUse" color-interpolation-filters="sRGB"><feFlood flood-color="#fff" result="bg"/><feBlend in="SourceGraphic" in2="bg"/></filter><mask id="mask-2" x="26.89" y="20.35" width="56.38" height="56.38" maskUnits="userSpaceOnUse"><g class="cls-1"><path class="cls-2" d="M62.58,20.35A28.78,28.78,0,0,1,35,57.19,28.73,28.73,0,0,1,26.89,56,28.77,28.77,0,1,0,62.58,20.35Z"/></g></mask><linearGradient id="linear-gradient-2" x1="38.65" y1="35.63" x2="87.3" y2="73.48" gradientUnits="userSpaceOnUse"><stop offset="0"/><stop offset="0.57"/><stop offset="0.61"/><stop offset="1" stop-color="#404040"/></linearGradient></defs><g id="Layer_2" data-name="Layer 2"><path class="cls-3" d="M27.47,21.64a4.86,4.86,0,1,1-4.86-4.86A4.86,4.86,0,0,1,27.47,21.64Z"/><path class="cls-4" d="M23.81,17a4.86,4.86,0,0,1-3.52,8.21A4.49,4.49,0,0,1,19.07,25a4.86,4.86,0,1,0,4.74-8Z"/><path class="cls-5" d="M85.45,77.35a4.86,4.86,0,1,1-4.86-4.86A4.87,4.87,0,0,1,85.45,77.35Z"/><path class="cls-4" d="M81.84,72.66a4.85,4.85,0,0,1-3.51,8.21,4.93,4.93,0,0,1-1.23-.16,4.86,4.86,0,1,0,4.74-8Z"/><path class="cls-6" d="M30.51,77.09a3.85,3.85,0,1,1-3.84-3.85A3.84,3.84,0,0,1,30.51,77.09Z"/><path class="cls-4" d="M27.67,73.38a3.84,3.84,0,0,1-3.75,6.37,3.84,3.84,0,1,0,3.75-6.37Z"/><path class="cls-5" d="M37.75,16.58a3.85,3.85,0,1,1-3.85-3.85A3.85,3.85,0,0,1,37.75,16.58Z"/><path class="cls-4" d="M34.9,12.87a3.84,3.84,0,0,1-3.75,6.37,3.84,3.84,0,1,0,3.75-6.37Z"/><path class="cls-6" d="M45.32,13a2.41,2.41,0,1,1-3.41,0A2.42,2.42,0,0,1,45.32,13Z"/><path class="cls-4" d="M42.39,12.64A2.41,2.41,0,0,1,44,16.76a2.18,2.18,0,0,1-.49.37,2.41,2.41,0,1,0-1.16-4.49Z"/><path class="cls-6" d="M23.07,32.44a2.41,2.41,0,1,1-3.41,0A2.41,2.41,0,0,1,23.07,32.44Z"/><path class="cls-4" d="M20.19,32.08a2.38,2.38,0,0,1,1.65.71,2.39,2.39,0,0,1-.49,3.78,2.38,2.38,0,0,0,1.77-.7,2.41,2.41,0,0,0-2.93-3.79Z"/><path class="cls-5" d="M27.09,64.05a2.42,2.42,0,1,1-3.42,0A2.43,2.43,0,0,1,27.09,64.05Z"/><path class="cls-4" d="M24.21,63.69a2.4,2.4,0,0,1,1.16,4.49,2.38,2.38,0,0,0,1.77-.7,2.41,2.41,0,0,0-2.93-3.79Z"/><path class="cls-3" d="M40.52,79.11a2.42,2.42,0,1,1-3.42,0A2.43,2.43,0,0,1,40.52,79.11Z"/><path class="cls-4" d="M37.58,78.75a2.42,2.42,0,0,1,1.65,4.12,2.12,2.12,0,0,1-.48.37,2.38,2.38,0,0,0,1.77-.7,2.42,2.42,0,0,0-2.94-3.79Z"/><path class="cls-5" d="M54.64,81.07a2.41,2.41,0,1,1-3.41,0A2.43,2.43,0,0,1,54.64,81.07Z"/><path class="cls-4" d="M51.71,80.71a2.41,2.41,0,0,1,1.65,4.12,2.18,2.18,0,0,1-.49.37,2.41,2.41,0,1,0-1.16-4.49Z"/><path class="cls-5" d="M87.5,65.26a2.42,2.42,0,1,1-3.42,0A2.43,2.43,0,0,1,87.5,65.26Z"/><path class="cls-4" d="M84.62,64.9a2.4,2.4,0,0,1,1.16,4.49,2.38,2.38,0,0,0,1.77-.7,2.41,2.41,0,0,0-2.93-3.79Z"/><path class="cls-3" d="M77.74,16.24a2.42,2.42,0,1,1-3.42,0A2.43,2.43,0,0,1,77.74,16.24Z"/><path class="cls-7" d="M75.89,16.45a.19.19,0,1,1,.27.27Z"/><path class="cls-4" d="M74.85,15.88A2.41,2.41,0,0,1,76.5,20a2.12,2.12,0,0,1-.48.37,2.41,2.41,0,1,0-1.17-4.49Z"/><path class="cls-6" d="M84.26,25.55a2.42,2.42,0,1,1-3.42,0A2.43,2.43,0,0,1,84.26,25.55Z"/><path class="cls-4" d="M81.32,25.19A2.42,2.42,0,0,1,83,29.31a2.17,2.17,0,0,1-.48.38,2.42,2.42,0,1,0-1.17-4.5Z"/><path class="cls-8" d="M28.05,48.85C41.89,62.69,64.69,62.69,81,52.92a6,6,0,0,1,1.92-.3,30,30,0,0,0,.35-3.43c-17.29,10.1-37,11.7-53.56-2a4.61,4.61,0,0,0-3.83-1.82c-.07.85-.11,1.7-.11,2.56,0,.23,0,.45,0,.68C26.71,48.47,27.54,48.34,28.05,48.85Z"/><path class="cls-6" d="M27.38,57.51a28.67,28.67,0,0,0,6,9.95c14.21-3.85,29.92-6.61,44.72-3.06a28.88,28.88,0,0,0,3-5.57C63.63,60.52,43.84,64.77,27.38,57.51Z"/><path class="cls-3" d="M81,52.92c-16.28,9.77-39.08,9.77-52.92-4.07-.51-.51-1.34-.38-2.3-.21a28.68,28.68,0,0,0,1.63,8.87c16.46,7.26,36.25,3,53.75,1.32a28.74,28.74,0,0,0,1.76-6.21A6,6,0,0,0,81,52.92Z"/><path class="cls-3" d="M33.37,67.46c.4.43.81.86,1.24,1.27C47.73,65.29,63.17,63,75.82,67.26a28.49,28.49,0,0,0,2.27-2.86C63.29,60.85,47.58,63.61,33.37,67.46Z"/><path class="cls-8" d="M51.72,76.58c.92.09,1.84.15,2.79.15a28.77,28.77,0,0,0,7.58-1A10.14,10.14,0,0,0,51.72,76.58Z"/><path class="cls-3" d="M47.67,75.91a28.28,28.28,0,0,0,4,.67,10.14,10.14,0,0,1,10.37-.88A29.94,29.94,0,0,0,66,74.33,19.21,19.21,0,0,0,47.67,75.91Z"/><path class="cls-6" d="M66,74.33a28.57,28.57,0,0,0,4.82-2.66c-9.15-3.48-20.34-2-29.38,1.89a28.68,28.68,0,0,0,6.28,2.35A19.21,19.21,0,0,1,66,74.33Z"/><path class="cls-5" d="M34.61,68.73a29,29,0,0,0,6.78,4.83c9-3.87,20.23-5.37,29.38-1.89a28.69,28.69,0,0,0,5-4.41C63.17,63,47.73,65.29,34.61,68.73Z"/><path class="cls-5" d="M29.68,47.22c16.55,13.67,36.27,12.07,53.56,2q0-.61,0-1.23A28.74,28.74,0,0,0,81.2,37.24c-11.78,17.28-33.4,7.31-48.27,1.84a14.45,14.45,0,0,0-5.46-1,28.42,28.42,0,0,0-1.62,7.28A4.61,4.61,0,0,1,29.68,47.22Z"/><path class="cls-8" d="M76.52,29.49c-.48-.57-1-1.13-1.5-1.66-9.5,8-26.19,5.69-36.39-2.59a4.4,4.4,0,0,0-1-.52,28.86,28.86,0,0,0-4.32,3.87C47.57,33.41,63,40.33,76.52,29.49Z"/><path class="cls-3" d="M78.33,31.91a28.74,28.74,0,0,0-1.81-2.42c-13.5,10.84-28.95,3.92-43.25-.9-.57.62-1.11,1.27-1.62,1.94C47,34,66.13,43.67,78.33,31.91Z"/><path class="cls-6" d="M80.46,35.59a29.84,29.84,0,0,0-2.13-3.68C66.13,43.67,47,34,31.65,30.53a28.8,28.8,0,0,0-2.89,4.64C44.71,38.92,66.76,47.94,80.46,35.59Z"/><path class="cls-3" d="M28.76,35.17a27.71,27.71,0,0,0-1.29,2.95,14.45,14.45,0,0,1,5.46,1C47.8,44.55,69.42,54.52,81.2,37.24c-.22-.56-.48-1.11-.74-1.65C66.76,47.94,44.71,38.92,28.76,35.17Z"/><path class="cls-5" d="M69,23.09c-3.45,1.24-7.45,1.85-10.78,3-6.79,2.09-11.23-1.18-16.12-4a29.13,29.13,0,0,0-4.46,2.68,4.4,4.4,0,0,1,1,.52C48.83,33.52,65.52,35.82,75,27.83A28.84,28.84,0,0,0,69,23.09Z"/><path class="cls-8" d="M64.4,21c-4.7,5-13.47,2.18-19.83,0-.86.32-1.7.67-2.52,1.06,4.89,2.83,9.33,6.1,16.12,4,3.33-1.11,7.33-1.72,10.78-3A28.59,28.59,0,0,0,64.4,21Z"/><path class="cls-6" d="M61.49,20.07a28.13,28.13,0,0,0-11.88-.45C53.52,21.88,58.64,24.16,61.49,20.07Z"/><path class="cls-3" d="M61.49,20.07c-2.85,4.09-8,1.81-11.88-.45a28.14,28.14,0,0,0-5,1.36c6.36,2.16,15.13,5,19.83,0A28.78,28.78,0,0,0,61.49,20.07Z"/><path class="cls-9" d="M33.61,42.61c0,.6-.73,1.08-1.63,1.08s-1.62-.48-1.62-1.08.72-1.09,1.62-1.09S33.61,42,33.61,42.61Z"/><path class="cls-9" d="M47.45,47.15c0,.6-.73,1.09-1.62,1.09s-1.63-.49-1.63-1.09.73-1.08,1.63-1.08S47.45,46.55,47.45,47.15Z"/><path class="cls-9" d="M63.74,51.09c0,.6-.73,1.08-1.63,1.08s-1.63-.48-1.63-1.08S61.21,50,62.11,50,63.74,50.49,63.74,51.09Z"/><path class="cls-9" d="M76.83,48.44c0,.6-.73,1.09-1.63,1.09s-1.62-.49-1.62-1.09.72-1.08,1.62-1.08S76.83,47.84,76.83,48.44Z"/><path class="cls-9" d="M58.38,29c0,.6-.73,1.08-1.63,1.08s-1.63-.48-1.63-1.08.73-1.09,1.63-1.09S58.38,28.37,58.38,29Z"/><path class="cls-9" d="M66.69,28.36c0,.21-.26.38-.58.38s-.57-.17-.57-.38.25-.39.57-.39S66.69,28.15,66.69,28.36Z"/><path class="cls-9" d="M70.76,25.71c0,.21-.26.39-.58.39s-.57-.18-.57-.39.25-.38.57-.38S70.76,25.5,70.76,25.71Z"/><path class="cls-9" d="M46.06,28c0,.21-.26.38-.57.38s-.58-.17-.58-.38.26-.39.58-.39S46.06,27.81,46.06,28Z"/><path class="cls-9" d="M49,27.14c0,.21-.26.38-.58.38s-.57-.17-.57-.38.25-.39.57-.39S49,26.92,49,27.14Z"/><path class="cls-9" d="M41.18,24.42c0,.22-.26.39-.58.39s-.58-.17-.58-.39.26-.38.58-.38S41.18,24.21,41.18,24.42Z"/><path class="cls-9" d="M30.46,45.5c0,.21-.26.39-.58.39s-.58-.18-.58-.39.26-.38.58-.38S30.46,45.29,30.46,45.5Z"/><path class="cls-9" d="M36.9,42.4c0,.22-.25.39-.57.39s-.58-.17-.58-.39S36,42,36.33,42,36.9,42.19,36.9,42.4Z"/><path class="cls-9" d="M39.55,47.29c0,.21-.26.38-.58.38s-.57-.17-.57-.38.25-.39.57-.39S39.55,47.08,39.55,47.29Z"/><path class="cls-9" d="M36.9,49c0,.22-.25.39-.57.39s-.58-.17-.58-.39.26-.38.58-.38S36.9,48.77,36.9,49Z"/><path class="cls-9" d="M47.28,50.27c0,.22-.25.39-.57.39s-.58-.17-.58-.39.26-.38.58-.38S47.28,50.06,47.28,50.27Z"/><path class="cls-9" d="M44,44.51c0,.21-.26.38-.58.38s-.57-.17-.57-.38.25-.39.57-.39S44,44.29,44,44.51Z"/><path class="cls-9" d="M46.67,52.65c0,.21-.25.38-.57.38s-.58-.17-.58-.38.26-.39.58-.39S46.67,52.43,46.67,52.65Z"/><path class="cls-9" d="M54.21,51.63c0,.21-.26.38-.58.38s-.58-.17-.58-.38.26-.38.58-.38S54.21,51.42,54.21,51.63Z"/><path class="cls-9" d="M59.09,56c0,.21-.26.39-.58.39s-.57-.18-.57-.39.25-.38.57-.38S59.09,55.76,59.09,56Z"/><path class="cls-9" d="M49.25,66.69c0,.22-.26.39-.57.39s-.58-.17-.58-.39.26-.38.58-.38S49.25,66.48,49.25,66.69Z"/><path class="cls-9" d="M37.79,69.34c0,.21-.26.38-.58.38s-.58-.17-.58-.38.26-.39.58-.39S37.79,69.13,37.79,69.34Z"/><path class="cls-9" d="M56,67.71c0,.21-.26.38-.58.38s-.58-.17-.58-.38.26-.38.58-.38S56,67.5,56,67.71Z"/><path class="cls-9" d="M58,68.39c0,.21-.25.38-.57.38s-.58-.17-.58-.38.26-.39.58-.39S58,68.18,58,68.39Z"/><path class="cls-9" d="M62.28,68.12c0,.21-.26.38-.58.38s-.57-.17-.57-.38.25-.39.57-.39S62.28,67.9,62.28,68.12Z"/><path class="cls-9" d="M61.53,66c0,.22-.26.39-.57.39s-.58-.17-.58-.39.26-.38.58-.38S61.53,65.8,61.53,66Z"/><path class="cls-9" d="M68.11,66.42c0,.21-.25.39-.57.39s-.58-.18-.58-.39.26-.38.58-.38S68.11,66.21,68.11,66.42Z"/><path class="cls-9" d="M71.17,69.88c0,.21-.26.39-.58.39s-.58-.18-.58-.39.26-.38.58-.38S71.17,69.67,71.17,69.88Z"/><path class="cls-9" d="M44.64,68.05c0,.21-.26.38-.58.38s-.58-.17-.58-.38.26-.38.58-.38S44.64,67.84,44.64,68.05Z"/><path class="cls-9" d="M51.08,69.41c0,.21-.25.38-.57.38s-.58-.17-.58-.38.26-.39.58-.39S51.08,69.19,51.08,69.41Z"/><path class="cls-9" d="M51.15,68.16c0,.22-.26.39-.58.39s-.57-.17-.57-.39.26-.38.57-.38S51.15,68,51.15,68.16Z"/><path class="cls-9" d="M59.5,52.85c0,.21-.26.39-.58.39s-.58-.18-.58-.39.26-.38.58-.38S59.5,52.64,59.5,52.85Z"/><path class="cls-9" d="M65.6,48.44c0,.22-.25.39-.57.39s-.58-.17-.58-.39.26-.38.58-.38S65.6,48.23,65.6,48.44Z"/><path class="cls-9" d="M67.3,49.32c0,.22-.26.39-.58.39s-.57-.17-.57-.39.25-.38.57-.38S67.3,49.11,67.3,49.32Z"/><path class="cls-9" d="M81.34,40.3c0,.21-.25.38-.57.38s-.58-.17-.58-.38.26-.38.58-.38S81.34,40.09,81.34,40.3Z"/><path class="cls-9" d="M80.12,45.25c0,.22-.26.39-.57.39s-.58-.17-.58-.39.26-.38.58-.38S80.12,45,80.12,45.25Z"/><path class="cls-9" d="M75.81,51.63c0,.21-.39.38-.88.38s-.88-.17-.88-.38.39-.38.88-.38S75.81,51.42,75.81,51.63Z"/><path class="cls-9" d="M35.27,46.51c0,.39-.47.71-1.06.71s-1.07-.32-1.07-.71.48-.71,1.07-.71S35.27,46.11,35.27,46.51Z"/><path class="cls-9" d="M40,44.2c0,.39-.47.71-1.06.71s-1.07-.32-1.07-.71.48-.71,1.07-.71S40,43.81,40,44.2Z"/><path class="cls-9" d="M41.58,51.46c0,.39-.47.71-1.06.71s-1.07-.32-1.07-.71.48-.71,1.07-.71S41.58,51.07,41.58,51.46Z"/><path class="cls-9" d="M51.56,49.63c0,.39-.48.71-1.07.71s-1.07-.32-1.07-.71.48-.71,1.07-.71S51.56,49.24,51.56,49.63Z"/><path class="cls-9" d="M55,55c0,.39-.48.71-1.07.71s-1.07-.32-1.07-.71.48-.71,1.07-.71S55,54.59,55,55Z"/><path class="cls-9" d="M57.94,49.9c0,.39-.48.71-1.07.71s-1.07-.32-1.07-.71.48-.71,1.07-.71S57.94,49.51,57.94,49.9Z"/><path class="cls-9" d="M72,48.75c0,.39-.48.71-1.07.71s-1.07-.32-1.07-.71.48-.72,1.07-.72S72,48.35,72,48.75Z"/><path class="cls-9" d="M80.67,42.57c0,.4-.48.72-1.07.72s-1.07-.32-1.07-.72.48-.71,1.07-.71S80.67,42.18,80.67,42.57Z"/><path class="cls-9" d="M80.89,48.58c0,.39-.48.71-1.07.71s-1.07-.32-1.07-.71.48-.71,1.07-.71S80.89,48.18,80.89,48.58Z"/><path class="cls-9" d="M65.35,54.34c0,.4-.48.72-1.07.72s-1.07-.32-1.07-.72.48-.71,1.07-.71S65.35,54,65.35,54.34Z"/><path class="cls-9" d="M68.27,25.51c0,.39-.48.71-1.07.71s-1.07-.32-1.07-.71.48-.71,1.07-.71S68.27,25.12,68.27,25.51Z"/><path class="cls-9" d="M62.84,30.73c0,.4-.48.72-1.07.72s-1.07-.32-1.07-.72.48-.71,1.07-.71S62.84,30.34,62.84,30.73Z"/><path class="cls-9" d="M62.91,26.59c0,.4-.48.72-1.07.72s-1.07-.32-1.07-.72.48-.71,1.07-.71S62.91,26.2,62.91,26.59Z"/><path class="cls-9" d="M71.25,28.22c0,.4-.48.71-1.07.71s-1.07-.31-1.07-.71.48-.71,1.07-.71S71.25,27.83,71.25,28.22Z"/><path class="cls-9" d="M44.93,25c0,.4-.48.72-1.07.72s-1.07-.32-1.07-.72.48-.71,1.07-.71S44.93,24.64,44.93,25Z"/><path class="cls-9" d="M51.78,29.51c0,.4-.48.71-1.07.71s-1.07-.31-1.07-.71.48-.71,1.07-.71S51.78,29.12,51.78,29.51Z"/><path class="cls-9" d="M41.06,68.8c0,.39-.48.71-1.07.71s-1.07-.32-1.07-.71.48-.72,1.07-.72S41.06,68.4,41.06,68.8Z"/><path class="cls-9" d="M48.45,69.34c0,.39-.47.71-1.06.71s-1.07-.32-1.07-.71.47-.71,1.07-.71S48.45,69,48.45,69.34Z"/><path class="cls-9" d="M59.38,66.56c0,.39-.48.71-1.07.71s-1.07-.32-1.07-.71.48-.72,1.07-.72S59.38,66.16,59.38,66.56Z"/><path class="cls-9" d="M67.72,68.73c0,.39-.48.71-1.07.71s-1.06-.32-1.06-.71.47-.71,1.06-.71S67.72,68.33,67.72,68.73Z"/><path class="cls-9" d="M65.35,66.42c0,.39-.48.71-1.07.71s-1.07-.32-1.07-.71.48-.71,1.07-.71S65.35,66,65.35,66.42Z"/><path class="cls-9" d="M71.47,68.05c0,.28-.34.51-.76.51s-.76-.23-.76-.51.34-.51.76-.51S71.47,67.77,71.47,68.05Z"/><path class="cls-9" d="M53.92,66.69c0,.28-.35.51-.77.51s-.76-.23-.76-.51.34-.51.76-.51S53.92,66.41,53.92,66.69Z"/><path class="cls-9" d="M40.48,70.63c0,.28-.34.51-.76.51s-.76-.23-.76-.51.34-.51.76-.51S40.48,70.35,40.48,70.63Z"/><path class="cls-9" d="M43.54,71.71c0,.29-.35.51-.77.51S42,72,42,71.71s.34-.51.76-.51S43.54,71.43,43.54,71.71Z"/><path class="cls-9" d="M43.26,52.85c0,.28-.34.51-.76.51s-.76-.23-.76-.51.34-.51.76-.51S43.26,52.57,43.26,52.85Z"/><path class="cls-9" d="M43.33,49.87c0,.28-.34.51-.76.51s-.76-.23-.76-.51.34-.51.76-.51S43.33,49.59,43.33,49.87Z"/><path class="cls-9" d="M29.56,42c0,.28-.34.5-.77.5S28,42.28,28,42s.34-.51.76-.51S29.56,41.71,29.56,42Z"/><path class="cls-9" d="M53.58,48.44c0,.28-.34.51-.77.51s-.76-.23-.76-.51.34-.51.76-.51S53.58,48.16,53.58,48.44Z"/><path class="cls-9" d="M69.66,51.77c0,.28-.35.51-.77.51s-.76-.23-.76-.51.34-.51.76-.51S69.66,51.48,69.66,51.77Z"/><path class="cls-9" d="M72.37,51c0,.28-.34.51-.76.51s-.77-.23-.77-.51.35-.51.77-.51S72.37,50.67,72.37,51Z"/><path class="cls-9" d="M77.87,44.78c0,.28-.34.51-.77.51s-.76-.23-.76-.51.34-.51.76-.51S77.87,44.5,77.87,44.78Z"/><path class="cls-9" d="M82.28,46.27c0,.28-.34.51-.77.51s-.76-.23-.76-.51.34-.51.76-.51S82.28,46,82.28,46.27Z"/><path class="cls-9" d="M49.37,55c0,.28-.34.5-.76.5s-.77-.22-.77-.5.35-.51.77-.51S49.37,54.67,49.37,55Z"/><path class="cls-9" d="M30.25,40.13c0,.39-.47.71-1.06.71s-1.07-.32-1.07-.71.48-.71,1.07-.71S30.25,39.74,30.25,40.13Z"/><g class="cls-10"><path class="cls-11" d="M62.58,20.35A28.78,28.78,0,0,1,35,57.19,28.73,28.73,0,0,1,26.89,56,28.77,28.77,0,1,0,62.58,20.35Z"/></g><path class="cls-12" d="M44.77,27.26c.87,1.14,0,3.28-2,4.78s-4.29,1.79-5.15.64,0-3.28,2-4.78S43.91,26.11,44.77,27.26Z"/></g></svg>