<svg xmlns="http://www.w3.org/2000/svg" xmlns:xlink="http://www.w3.org/1999/xlink" viewBox="0 0 106 101.33"><defs><style>.cls-1{mask:url(#mask);filter:url(#luminosity-noclip-2);}.cls-2{mix-blend-mode:multiply;fill:url(#linear-gradient);}.cls-3{fill:#f41111;}.cls-24,.cls-4{fill:#fff;}.cls-4{opacity:0.7;}.cls-5{opacity:0.2;}.cls-6{fill:#ff9f36;}.cls-7{fill:#ffb727;}.cls-8{fill:#ffc215;}.cls-9{fill:#f9832b;}.cls-10{fill:#ff6a17;}.cls-11{fill:#ea1111;}.cls-12{fill:#ce0b0b;}.cls-13{fill:#bf0c0c;}.cls-14{fill:#751104;}.cls-15{fill:#871108;}.cls-16{fill:#a3130c;}.cls-17{fill:#e01212;}.cls-18{fill:#ff1212;}.cls-19{fill:#ff4715;}.cls-20{fill:#fc6f29;}.cls-21{fill:#ff9a22;}.cls-22{mask:url(#mask-2);}.cls-23{fill:url(#linear-gradient-2);}.cls-25{filter:url(#luminosity-noclip);}</style><filter id="luminosity-noclip" x="20.63" y="-7891" width="56.38" height="32766" filterUnits="userSpaceOnUse" color-interpolation-filters="sRGB"><feFlood flood-color="#fff" result="bg"/><feBlend in="SourceGraphic" in2="bg"/></filter><mask id="mask" x="20.63" y="-7891" width="56.38" height="32766" maskUnits="userSpaceOnUse"><g class="cls-25"/></mask><linearGradient id="linear-gradient" x1="32.39" y1="39.9" x2="81.03" y2="77.74" gradientUnits="userSpaceOnUse"><stop offset="0"/><stop offset="0.14" stop-color="#030303"/><stop offset="0.27" stop-color="#0e0e0e"/><stop offset="0.39" stop-color="#202020"/><stop offset="0.51" stop-color="#3a3a3a"/><stop offset="0.62" stop-color="#5a5a5a"/><stop offset="0.73" stop-color="#828282"/><stop offset="0.84" stop-color="#b2b2b2"/><stop offset="0.95" stop-color="#e8e8e8"/><stop offset="0.99" stop-color="#fff"/></linearGradient><filter id="luminosity-noclip-2" x="20.63" y="24.61" width="56.38" height="56.38" filterUnits="userSpaceOnUse" color-interpolation-filters="sRGB"><feFlood flood-color="#fff" result="bg"/><feBlend in="SourceGraphic" in2="bg"/></filter><mask id="mask-2" x="20.63" y="24.61" width="56.38" height="56.38" maskUnits="userSpaceOnUse"><g class="cls-1"><path class="cls-2" d="M56.31,24.61A28.76,28.76,0,0,1,28.7,61.45a29,29,0,0,1-8.07-1.15A28.77,28.77,0,1,0,56.31,24.61Z"/></g></mask><linearGradient id="linear-gradient-2" x1="32.39" y1="39.9" x2="81.03" y2="77.74" gradientUnits="userSpaceOnUse"><stop offset="0"/><stop offset="0.14" stop-color="#030001"/><stop offset="0.27" stop-color="#0e0103"/><stop offset="0.39" stop-color="#200206"/><stop offset="0.51" stop-color="#3a040b"/><stop offset="0.62" stop-color="#5a0611"/><stop offset="0.73" stop-color="#820919"/><stop offset="0.84" stop-color="#b20c22"/><stop offset="0.95" stop-color="#e80f2d"/><stop offset="0.99" stop-color="#ff1131"/></linearGradient></defs><g id="Layer_2" data-name="Layer 2"><path class="cls-3" d="M78.85,24.66A3.85,3.85,0,1,1,75,20.81,3.84,3.84,0,0,1,78.85,24.66Z"/><path class="cls-4" d="M74.6,22.87a.51.51,0,1,1-.51-.52A.51.51,0,0,1,74.6,22.87Z"/><path class="cls-5" d="M76.06,21a3.85,3.85,0,0,1-3.75,6.38A3.85,3.85,0,1,0,76.06,21Z"/><path class="cls-6" d="M86.53,36a4.86,4.86,0,1,1-4.86-4.86A4.87,4.87,0,0,1,86.53,36Z"/><path class="cls-5" d="M82.87,31.27a4.85,4.85,0,0,1-3.52,8.21,4.92,4.92,0,0,1-1.22-.16,4.86,4.86,0,1,0,4.74-8Z"/><path class="cls-7" d="M60.22,26.07a28.31,28.31,0,0,0-5.32-1.83C51,26,46.4,25.52,42,24.16a28.46,28.46,0,0,0-8,3.09C42.88,28.77,52.31,29.66,60.22,26.07Z"/><path class="cls-8" d="M54.9,24.24a29.25,29.25,0,0,0-6.66-.78,28.66,28.66,0,0,0-6.26.7C46.4,25.52,51,26,54.9,24.24Z"/><path class="cls-6" d="M59.91,30.92a33.41,33.41,0,0,0,5-2.08,29.51,29.51,0,0,0-4.74-2.77c-7.91,3.59-17.34,2.7-26.25,1.18a28.8,28.8,0,0,0-5.17,3.8A41.3,41.3,0,0,0,59.91,30.92Z"/><path class="cls-9" d="M70.94,34.6c-.57-.73-1.18-1.44-1.82-2.12a17.64,17.64,0,0,1-10,5c-11.13,3-23.62,3.23-31.9-4.77a29,29,0,0,0-3.65,4.86C38.06,44.12,60.42,47.25,70.94,34.6Z"/><path class="cls-10" d="M76,44.64c-.2-.74-.44-1.48-.7-2.2a19.47,19.47,0,0,1-8,3.13C51.51,49.51,35,49.64,22.18,40.11a28.44,28.44,0,0,0-2.11,6.36C37.08,54.52,60.37,54.6,76,44.64Z"/><path class="cls-11" d="M75.29,62a28.83,28.83,0,0,0,1.45-5.89C61.28,67.47,36.52,65.7,20,57.78a28.25,28.25,0,0,0,2.84,8C39.57,71.75,59.37,70.08,75.29,62Z"/><path class="cls-12" d="M24.5,68.44a29.26,29.26,0,0,0,3.37,4.07c10.41,1.47,20.8-.83,30.41,2.37a15.71,15.71,0,0,0,6.38,1,28.58,28.58,0,0,0,5.77-5.32C56.73,75,39,69.32,24.5,68.44Z"/><path class="cls-13" d="M61,78a28.57,28.57,0,0,0,3.7-2.19,15.71,15.71,0,0,1-6.38-1c-9.61-3.2-20-.9-30.41-2.37A28.19,28.19,0,0,0,32,75.94C40.48,72.74,51.64,74.69,61,78Z"/><path class="cls-14" d="M43.81,80.64a28.08,28.08,0,0,0,4.43.35q1.34,0,2.64-.12C48.53,79.71,46.07,79.27,43.81,80.64Z"/><path class="cls-15" d="M38.32,79.21a28.76,28.76,0,0,0,5.49,1.43c2.26-1.37,4.72-.93,7.07.23a28.8,28.8,0,0,0,6.73-1.45C51.85,76.72,44.34,76.79,38.32,79.21Z"/><path class="cls-16" d="M32,75.94a28.74,28.74,0,0,0,6.33,3.27c6-2.42,13.53-2.49,19.29.21A28.17,28.17,0,0,0,61,78C51.64,74.69,40.48,72.74,32,75.94Z"/><path class="cls-17" d="M70.43,70.51A28.66,28.66,0,0,0,75.29,62c-15.92,8.09-35.72,9.76-52.44,3.76a28.49,28.49,0,0,0,1.65,2.69C39,69.32,56.73,75,70.43,70.51Z"/><path class="cls-3" d="M76.74,56.1A29.17,29.17,0,0,0,77,52.22c0-.71,0-1.42-.09-2.13-16.81,9.72-41.3,15.38-57.41,3.53a28.32,28.32,0,0,0,.5,4.16C36.52,65.7,61.28,67.47,76.74,56.1Z"/><path class="cls-18" d="M76.92,50.09c0-.61-.11-1.22-.19-1.83C60.87,58.83,35,58.45,19.79,48a29,29,0,0,0-.32,4.2c0,.47,0,.94,0,1.4C35.62,65.47,60.11,59.81,76.92,50.09Z"/><path class="cls-19" d="M76.73,48.26A27.34,27.34,0,0,0,76,44.64c-15.61,10-38.9,9.88-55.91,1.83-.11.51-.2,1-.28,1.55C35,58.45,60.87,58.83,76.73,48.26Z"/><path class="cls-20" d="M67.24,45.57a19.47,19.47,0,0,0,8-3.13,28.59,28.59,0,0,0-4.34-7.84c-10.52,12.65-32.88,9.52-47.4,2.92a26.54,26.54,0,0,0-1.36,2.59C35,49.64,51.51,49.51,67.24,45.57Z"/><path class="cls-21" d="M59.09,37.43a17.64,17.64,0,0,0,10-5A29.41,29.41,0,0,0,65,28.84a33.41,33.41,0,0,1-5,2.08,41.3,41.3,0,0,1-31.11.13c-.56.51-1.09,1.05-1.61,1.61C35.47,40.66,48,40.4,59.09,37.43Z"/><g class="cls-22"><path class="cls-23" d="M56.31,24.61A28.76,28.76,0,0,1,28.7,61.45a29,29,0,0,1-8.07-1.15A28.77,28.77,0,1,0,56.31,24.61Z"/></g><path class="cls-4" d="M39.53,30.61c.86,1.15,0,3.29-2,4.79s-4.29,1.78-5.16.64,0-3.29,2-4.78S38.66,29.47,39.53,30.61Z"/><path class="cls-24" d="M81.1,34.07a.61.61,0,0,1-.61.61.62.62,0,0,1-.61-.61.61.61,0,0,1,.61-.61A.61.61,0,0,1,81.1,34.07Z"/></g></svg>