<svg xmlns="http://www.w3.org/2000/svg" xmlns:xlink="http://www.w3.org/1999/xlink" viewBox="0 0 106 101.33"><defs><style>.cls-1{mask:url(#mask);filter:url(#luminosity-noclip-3);}.cls-2,.cls-4{mix-blend-mode:multiply;}.cls-2{fill:url(#linear-gradient);}.cls-3{mask:url(#mask-2);filter:url(#luminosity-noclip-4);}.cls-4{fill:url(#linear-gradient-2);}.cls-5{fill:#fcfcfc;}.cls-6{fill:#efefef;}.cls-7{fill:#e5e5e5;}.cls-8{fill:#dbdbdb;}.cls-9{fill:#8c8c8c;}.cls-10{fill:#9b9b9b;}.cls-11{fill:#aaa;}.cls-12{fill:#b7b7b7;}.cls-13{fill:#c1c1c1;}.cls-14{fill:#ccc;}.cls-15{mask:url(#mask-3);}.cls-16{fill:url(#linear-gradient-3);}.cls-17{fill:#fff;opacity:0.7;}.cls-18{fill:#ffd400;}.cls-19{fill:#ff8500;}.cls-20{fill:#fffa94;}.cls-20,.cls-22{opacity:0.5;}.cls-21{mask:url(#mask-4);}.cls-22{fill:url(#linear-gradient-4);}.cls-23{filter:url(#luminosity-noclip-2);}.cls-24{filter:url(#luminosity-noclip);}</style><filter id="luminosity-noclip" x="25.25" y="-7891" width="56.27" height="32766" filterUnits="userSpaceOnUse" color-interpolation-filters="sRGB"><feFlood flood-color="#fff" result="bg"/><feBlend in="SourceGraphic" in2="bg"/></filter><mask id="mask" x="25.25" y="-7891" width="56.27" height="32766" maskUnits="userSpaceOnUse"><g class="cls-24"/></mask><linearGradient id="linear-gradient" x1="36.98" y1="40.16" x2="85.51" y2="77.92" gradientUnits="userSpaceOnUse"><stop offset="0"/><stop offset="0.12" stop-color="#030303"/><stop offset="0.23" stop-color="#0e0e0e"/><stop offset="0.33" stop-color="#202020"/><stop offset="0.43" stop-color="#393939"/><stop offset="0.53" stop-color="#5a5a5a"/><stop offset="0.61" stop-color="#7a7a7a"/><stop offset="1" stop-color="#fff"/></linearGradient><filter id="luminosity-noclip-2" x="82.18" y="-7891" width="14.45" height="32766" filterUnits="userSpaceOnUse" color-interpolation-filters="sRGB"><feFlood flood-color="#fff" result="bg"/><feBlend in="SourceGraphic" in2="bg"/></filter><mask id="mask-2" x="82.18" y="-7891" width="14.45" height="32766" maskUnits="userSpaceOnUse"><g class="cls-23"/></mask><linearGradient id="linear-gradient-2" x1="50.31" y1="-252.18" x2="55.26" y2="-247.1" gradientTransform="translate(338.59 93.66) rotate(-87.09)" gradientUnits="userSpaceOnUse"><stop offset="0"/><stop offset="0.98" stop-color="#fff"/></linearGradient><filter id="luminosity-noclip-3" x="25.25" y="24.99" width="56.27" height="56.11" filterUnits="userSpaceOnUse" color-interpolation-filters="sRGB"><feFlood flood-color="#fff" result="bg"/><feBlend in="SourceGraphic" in2="bg"/></filter><mask id="mask-3" x="25.25" y="24.99" width="56.27" height="56.11" maskUnits="userSpaceOnUse"><g class="cls-1"><path class="cls-2" d="M60.86,25A28.61,28.61,0,0,1,33.31,61.66a29,29,0,0,1-8.06-1.15A28.7,28.7,0,1,0,60.86,25Z"/></g></mask><linearGradient id="linear-gradient-3" x1="36.98" y1="40.16" x2="85.51" y2="77.92" gradientUnits="userSpaceOnUse"><stop offset="0"/><stop offset="0.57"/><stop offset="0.61"/><stop offset="1" stop-color="#404040"/></linearGradient><filter id="luminosity-noclip-4" x="82.18" y="23.26" width="14.45" height="15.03" filterUnits="userSpaceOnUse" color-interpolation-filters="sRGB"><feFlood flood-color="#fff" result="bg"/><feBlend in="SourceGraphic" in2="bg"/></filter><mask id="mask-4" x="82.18" y="23.26" width="14.45" height="15.03" maskUnits="userSpaceOnUse"><g class="cls-3"><path class="cls-4" d="M82.18,27.72a7.74,7.74,0,0,1,2.15,0,7.56,7.56,0,0,1,6.45,8.52,7.79,7.79,0,0,1-.6,2.06,7.56,7.56,0,1,0-8-10.57Z"/></g></mask><linearGradient id="linear-gradient-4" x1="50.31" y1="-252.18" x2="55.26" y2="-247.1" gradientTransform="translate(338.59 93.66) rotate(-87.09)" gradientUnits="userSpaceOnUse"><stop offset="0" stop-color="#ff6700"/><stop offset="0.98" stop-color="#c61300"/></linearGradient></defs><g id="Layer_2" data-name="Layer 2"><path class="cls-5" d="M54.4,23.61c-.48,0-1,0-1.46,0a28.63,28.63,0,0,0-15.58,4.59c.67.27,1.29.57,1.91.89C44.82,31.12,50.36,28.46,54.4,23.61Z"/><path class="cls-6" d="M54.4,23.61c-4,4.85-9.58,7.51-15.13,5.44-.62-.32-1.24-.62-1.91-.89a28.78,28.78,0,0,0-6.74,6.05c1.53-.74,3.11-1.33,4.59-1.92C40.9,30.67,47.4,38,50.65,33.1A20.9,20.9,0,0,1,63,25.36,28.91,28.91,0,0,0,54.4,23.61Z"/><path class="cls-7" d="M63,25.36A20.9,20.9,0,0,0,50.65,33.1C47.4,38,40.9,30.67,35.21,32.29c-1.48.59-3.06,1.18-4.59,1.92-.55.67-1.06,1.36-1.54,2.08a7.86,7.86,0,0,1,6.94.86C40.08,39.58,45,44.44,50.65,42c4.87-2.43,6.5-8.91,10.56-11.34,3.87-2.42,7.74-.23,11.61.9A28.7,28.7,0,0,0,63,25.36Z"/><path class="cls-8" d="M72.82,31.57c-3.87-1.13-7.74-3.32-11.61-.9C57.15,33.1,55.52,39.58,50.65,42,45,44.44,40.08,39.58,36,37.15a7.86,7.86,0,0,0-6.94-.86,28.71,28.71,0,0,0-3.23,6.49c4.13-2,8.5,2.27,11.8,4.9,8.12,5.68,21.12,4,25.19-6.48,2.43-5.67,8.93.81,13-.81a10.83,10.83,0,0,0,2.42-1.66A28.85,28.85,0,0,0,72.82,31.57Z"/><path class="cls-9" d="M43.5,79.24a28.65,28.65,0,0,0,9.44,1.6c.75,0,1.49,0,2.22-.1C51.21,79.75,47.16,78.11,43.5,79.24Z"/><path class="cls-10" d="M61.21,74.42c-4.87,0-8.94,5.68-13.81,2.44A16,16,0,0,0,35.6,75a28.64,28.64,0,0,0,7.9,4.24c3.66-1.13,7.71.51,11.66,1.5A28.74,28.74,0,0,0,65.58,77.9C64.24,76.27,63.06,74.42,61.21,74.42Z"/><path class="cls-11" d="M78.52,65.21c-4.46,1.52-9,7.35-13.25,8.4-4.87.81-9.75-4-13-3.24-8.12.81-15.44,3.24-21.94-4.05a7.89,7.89,0,0,0-2.38,0A28.79,28.79,0,0,0,35.6,75a16,16,0,0,1,11.8,1.86c4.87,3.24,8.94-2.44,13.81-2.44,1.85,0,3,1.85,4.37,3.48A28.83,28.83,0,0,0,78.52,65.21Z"/><path class="cls-12" d="M71.77,59c-2.43,4-3.25,8.1-7.31,9.72-4.87,1.62-7.31-3.24-10.56-4-8.13-1.62-17.07,6.48-23.57-4.05-.62-.62-3.15-2.18-5-.7A28.8,28.8,0,0,0,28,66.29a7.89,7.89,0,0,1,2.38,0c6.5,7.29,13.82,4.86,21.94,4.05,3.25-.81,8.13,4,13,3.24,4.22-1,8.79-6.88,13.25-8.4A28.48,28.48,0,0,0,81.24,57C77.83,57.37,74.51,55.61,71.77,59Z"/><path class="cls-13" d="M80.89,45.69c-2.71.64-5.67,1-7.49,2.8-3.25,3.24-4.88,8.11-9.75,9.73s-8.94-4-13-4c-5.69,0-9.75,6.48-17.07,4C28.37,56,29.29,49,24.48,48.47A28.39,28.39,0,0,0,25.3,60c1.88-1.48,4.41.08,5,.7,6.5,10.53,15.44,2.43,23.57,4.05,3.25.81,5.69,5.67,10.56,4,4.06-1.62,4.88-5.67,7.31-9.72,2.74-3.42,6.06-1.66,9.47-2a28,28,0,0,0-.35-11.35Z"/><path class="cls-14" d="M33.58,58.22c7.32,2.43,11.38-4,17.07-4,4.06,0,8.12,5.67,13,4s6.5-6.49,9.75-9.73c1.82-1.81,4.78-2.16,7.49-2.8a28.47,28.47,0,0,0-2.63-7,10.83,10.83,0,0,1-2.42,1.66c-4.07,1.62-10.57-4.86-13,.81-4.07,10.53-17.07,12.16-25.19,6.48-3.3-2.63-7.67-6.86-11.8-4.9a29.16,29.16,0,0,0-1.37,5.69C29.29,49,28.37,56,33.58,58.22Z"/><path d="M81.59,46.53c-.07,0,0,0,.18.17A.89.89,0,0,0,81.59,46.53Z"/><g class="cls-15"><path class="cls-16" d="M60.86,25A28.61,28.61,0,0,1,33.31,61.66a29,29,0,0,1-8.06-1.15A28.7,28.7,0,1,0,60.86,25Z"/></g><path class="cls-17" d="M44.47,31.27c.86,1.14,0,3.28-2,4.78s-4.29,1.79-5.15.64,0-3.28,2-4.78S43.6,30.12,44.47,31.27Z"/><path class="cls-18" d="M90.19,22.36a8.49,8.49,0,1,1-2.33,16.81,8.28,8.28,0,0,1-7.23-8c0-.15-9-8.24-8.68-8.78s8.62,7.67,8.63,7.52,0-.08,0-.27c.11-.78-15.38-15.68-14.57-17C67.06,11,81.41,27,81.5,26.83a13.14,13.14,0,0,1,.8-1.2c.1-.12-11.38-11.53-10.59-12.4,1-1.11,12.06,10.87,12.22,10.75s.41-.29.62-.42S68,6.22,69.13,4.94c.8-.92,17.42,17.71,17.73,17.65,0,0,1.07-.08.92-.33-1-1.83-7.12-9.18-6.48-9.67C82.35,11.79,89.53,22.27,90.19,22.36Z"/><path class="cls-18" d="M90.06,23.28a7.56,7.56,0,1,1-8.52,6.45A7.55,7.55,0,0,1,90.06,23.28Z"/><path class="cls-19" d="M83,34.9l.79.8s.22.81.92.46,1.29-1,1-1.42-.7.07-1.22-.33-.67-1.32-1.24-1.36S82.24,33.69,83,34.9Z"/><path class="cls-19" d="M85.78,36.8s-.48-.11,0-.78.82-1.16.62-1.51-.82-.28-1.2-.45-.64-.13-.69-.63.63-.73,1-.93,1.16-.94,1.76.57.06,1.69,0,2.62,1,1.49.46,1.66a2.09,2.09,0,0,1-1.46,0C86,37.15,85.78,36.51,85.78,36.8Z"/><path class="cls-19" d="M82.14,31.75c0,.33.06.46.83.77s.67.55.83.53.41,0,.69-.52.59-.08,1-.56c.8-1,2.2.71,2.09-.28s-.4-1.25-1.5-1.56-1-.75-2-.57-1.3-.63-1.73-.53-.25.62-.38,1.26S82.18,31.47,82.14,31.75Z"/><path class="cls-19" d="M87.73,35.72A2.17,2.17,0,0,0,88.37,37c.54.53.55.82,1.33.76s1.53.5,1.82-.44-.17-1.46-.85-1.27-.9.66-1.16-.44.1-2-.53-2.41-.94-.9-1.17-.41A6.37,6.37,0,0,0,88,35.06C88,35.35,87.68,35.51,87.73,35.72Z"/><path class="cls-19" d="M88.08,32c.27.41.22.16.77.6s.37.87.91,1.11,1.33.47,1.41-.38.41-1.78-.36-2.46a8.28,8.28,0,0,0-2.51-1.62c-1-.43-2.22-1.12-2.59-.52s-.31.78.52,1,.9,0,1.48.82S87.54,31.19,88.08,32Z"/><path class="cls-19" d="M82.64,27.53c0,.13-.54.41.08.95s.72,1,1.16.73a1.53,1.53,0,0,1,.9-.28c.37,0,.27-.45.79-.67s1,.5,1.28-.11.64-.73-.19-1-1.2.45-1.63-.3.32-1.43-.32-1.27-1.35.05-1.38,1.11S82.64,27.53,82.64,27.53Z"/><path class="cls-19" d="M85.47,26.33c.25.27.28.36.92.41s.88-.12,1.24.21.55.77.79.23,0-.61.43-1.37,0-.89.79-1.28a1,1,0,0,1,1.21.13s1.2-.08.52-.46-.91-.86-2-.77-.87.33-1.77.66-1.09-.11-1.71.21-1.21.49-1,.73.75-.39.85.07S85.22,26.05,85.47,26.33Z"/><path class="cls-19" d="M87.42,28.48s-.41-.55,0-.66.6.09.82,0a.77.77,0,0,0,.58-.65,2.51,2.51,0,0,1,.22-1c.25-.58-.06-1,.53-1.12s.67-1.3,1.17.12.83,1.06-.14,1.87-1.26,1.13-.82,1.8.62,1.4,0,.95-.41-.83-.93-1S87.4,28.35,87.42,28.48Z"/><path class="cls-19" d="M90.08,34.41c0,.12-.7.92-.11,1.05s.56-.21,1.15,0,.68.38.72.72-.09.6.18.72.39.46.86,0,.88-.45,1.21-1.06,1.1-1.4,1.16-1.84-.09-1.4-.56-1-.57.9-1,1.42-.49.91-1.11.63-.46-.19-.41-.88.75-.39.49-1.49-.73-1.49-.86-1.43-.27.46-.17,1.25.16,1.49-.19,1.61S90.08,34.41,90.08,34.41Z"/><path class="cls-19" d="M90.91,29.57c0,.12-.28.54.31.7s1.18.61,1.32-.06-.15-1,.12-1.78-.1-1,.41-1.5.78-.26,1-.48.16-.51-.37-.82-.58-.58-1-.6-1-.14-1.24.12-.1-.14,0,.7.25,1.1-.36,1.42-1.13.13-1,.8a1.32,1.32,0,0,0,.5.89C90.66,29.05,90.91,29.57,90.91,29.57Z"/><path class="cls-19" d="M92.61,34.14l.41.27s.62-.33.57-.58.31-.73.33-.89.36-.81.48-.8.82.28.82.28.31.45.43.14.49-.59.48-.79S96,30.45,96,30.28a9,9,0,0,0-.21-1.46,8,8,0,0,0-.51-1.05c-.1-.14-.27-.41-.43-.47s-.22-.16-.43-.1a2.7,2.7,0,0,0-.72.47c-.18.14-.29,0-.48.51s-.37.6-.31.77a2.78,2.78,0,0,0,.3.49c0,1.15-.31,1.07-.46,1.25s-.34.11-.17.34a4.87,4.87,0,0,1,.39.47.89.89,0,0,1,.19.68,3.34,3.34,0,0,1-.18,1C92.92,33.37,92.61,34.14,92.61,34.14Z"/><path class="cls-19" d="M70.39,11.92c.49.34,1-.35.9-.95a1.45,1.45,0,0,0-1-1.15c-.53-.14-1.24.09-1,.73A5.45,5.45,0,0,0,70.39,11.92Z"/><path class="cls-20" d="M70.58,11.48a5.27,5.27,0,0,1-1.06-1.37.89.89,0,0,1-.06-.2.46.46,0,0,0-.16.64,5.53,5.53,0,0,0,1.06,1.36c.38.27.75-.09.86-.54A.44.44,0,0,1,70.58,11.48Z"/><path class="cls-19" d="M89.16,20c.49.34,1-.35.9-.94a1.42,1.42,0,0,0-1-1.15c-.53-.14-1.24.09-1,.72A5.27,5.27,0,0,0,89.16,20Z"/><path class="cls-20" d="M89.35,19.52a5.27,5.27,0,0,1-1.06-1.37,1,1,0,0,1-.06-.21.46.46,0,0,0-.16.64A5.52,5.52,0,0,0,89.13,20c.38.27.75-.09.86-.55A.45.45,0,0,1,89.35,19.52Z"/><path class="cls-19" d="M71.4,25.25c.52.29.91-.45.79-1a1.44,1.44,0,0,0-1.12-1c-.55-.08-1.22.23-.88.83A5.57,5.57,0,0,0,71.4,25.25Z"/><path class="cls-20" d="M71.54,24.8a5.55,5.55,0,0,1-1.21-1.25,1,1,0,0,1-.08-.19.46.46,0,0,0-.08.65,5.25,5.25,0,0,0,1.2,1.24c.41.22.73-.17.8-.64A.45.45,0,0,1,71.54,24.8Z"/><path class="cls-19" d="M77,10.32c.49.34,1-.35.9-1a1.43,1.43,0,0,0-1-1.14c-.53-.14-1.24.09-1,.72A5.52,5.52,0,0,0,77,10.32Z"/><path class="cls-20" d="M77.17,9.88a5.27,5.27,0,0,1-1.06-1.37.89.89,0,0,1-.06-.2A.46.46,0,0,0,75.9,9,5.45,5.45,0,0,0,77,10.32c.37.26.74-.1.86-.55A.46.46,0,0,1,77.17,9.88Z"/><path class="cls-19" d="M79.9,12.33c.28.19.54-.2.51-.53a.81.81,0,0,0-.56-.65c-.3-.08-.7,0-.54.41A3,3,0,0,0,79.9,12.33Z"/><path class="cls-20" d="M80,12.08a2.89,2.89,0,0,1-.6-.77.26.26,0,0,1,0-.11.25.25,0,0,0-.09.36,2.89,2.89,0,0,0,.6.77c.21.15.42-.05.48-.31A.25.25,0,0,1,80,12.08Z"/><path class="cls-19" d="M70.9,5.11c.27.2.53-.19.5-.53a.8.8,0,0,0-.56-.64c-.3-.08-.69.05-.54.4A2.89,2.89,0,0,0,70.9,5.11Z"/><path class="cls-20" d="M71,4.87a3,3,0,0,1-.59-.77.27.27,0,0,1,0-.12.25.25,0,0,0-.09.36,3,3,0,0,0,.59.77c.22.15.42-.05.49-.3A.26.26,0,0,1,71,4.87Z"/><path class="cls-19" d="M80.07,14.31c.27.19.53-.2.5-.53a.81.81,0,0,0-.56-.65c-.3-.08-.7,0-.54.41A2.89,2.89,0,0,0,80.07,14.31Z"/><path class="cls-20" d="M80.17,14.07a3.19,3.19,0,0,1-.59-.77.84.84,0,0,1,0-.12.27.27,0,0,0-.09.36,3.13,3.13,0,0,0,.6.77c.21.15.42-.05.48-.31A.26.26,0,0,1,80.17,14.07Z"/><path class="cls-19" d="M67.45,11.17c.27.19.53-.19.5-.53a.83.83,0,0,0-.56-.65c-.3-.07-.7,0-.54.41A2.89,2.89,0,0,0,67.45,11.17Z"/><path class="cls-20" d="M67.55,10.93a3.19,3.19,0,0,1-.59-.77.56.56,0,0,1,0-.12.26.26,0,0,0-.08.36,3,3,0,0,0,.59.77c.21.15.42-.05.49-.31A.27.27,0,0,1,67.55,10.93Z"/><path class="cls-19" d="M69.52,21.18c.28.2.54-.19.51-.53a.8.8,0,0,0-.56-.64c-.3-.08-.7,0-.54.4A3,3,0,0,0,69.52,21.18Z"/><path class="cls-20" d="M69.63,20.94a2.89,2.89,0,0,1-.6-.77.27.27,0,0,1,0-.12.26.26,0,0,0-.09.36,2.89,2.89,0,0,0,.6.77c.21.15.42-.05.48-.31A.25.25,0,0,1,69.63,20.94Z"/><path class="cls-19" d="M93.11,22.34c.27.2.54-.19.51-.53a.8.8,0,0,0-.56-.64c-.31-.08-.7,0-.54.4A3,3,0,0,0,93.11,22.34Z"/><path class="cls-20" d="M93.22,22.1a2.89,2.89,0,0,1-.6-.77.27.27,0,0,1,0-.12.26.26,0,0,0-.09.36,2.89,2.89,0,0,0,.6.77c.21.15.41-.05.48-.3A.26.26,0,0,1,93.22,22.1Z"/><path class="cls-19" d="M78.68,32.09c.28.19.54-.2.51-.53a.81.81,0,0,0-.56-.65c-.3-.08-.7.05-.54.41A3,3,0,0,0,78.68,32.09Z"/><path class="cls-20" d="M78.79,31.84a3,3,0,0,1-.59-.77.76.76,0,0,1,0-.11.27.27,0,0,0-.09.36,3.13,3.13,0,0,0,.6.77c.21.15.42-.05.49-.31A.26.26,0,0,1,78.79,31.84Z"/><g class="cls-21"><path class="cls-22" d="M82.18,27.72a7.74,7.74,0,0,1,2.15,0,7.56,7.56,0,0,1,6.45,8.52,7.79,7.79,0,0,1-.6,2.06,7.56,7.56,0,1,0-8-10.57Z"/></g></g></svg>