<svg xmlns="http://www.w3.org/2000/svg" xmlns:xlink="http://www.w3.org/1999/xlink" viewBox="0 0 106 101.33"><defs><style>.cls-1{mask:url(#mask);filter:url(#luminosity-noclip-2);}.cls-2{mix-blend-mode:multiply;fill:url(#linear-gradient);}.cls-3{fill:#ece4f9;}.cls-4{opacity:0.2;}.cls-5{fill:#d6c3ed;}.cls-6{fill:#65377f;}.cls-7{fill:#794899;}.cls-8{fill:#8d58b7;}.cls-9{fill:#a177c9;}.cls-10{fill:#ba9cdb;}.cls-11{mask:url(#mask-2);}.cls-12{fill:url(#linear-gradient-2);}.cls-13{fill:#fff;opacity:0.7;}.cls-14{filter:url(#luminosity-noclip);}</style><filter id="luminosity-noclip" x="24.33" y="-7755.67" width="56.38" height="32766" filterUnits="userSpaceOnUse" color-interpolation-filters="sRGB"><feFlood flood-color="#fff" result="bg"/><feBlend in="SourceGraphic" in2="bg"/></filter><mask id="mask" x="24.33" y="-7755.67" width="56.38" height="32766" maskUnits="userSpaceOnUse"><g class="cls-14"/></mask><linearGradient id="linear-gradient" x1="36.09" y1="41.7" x2="84.73" y2="79.55" gradientUnits="userSpaceOnUse"><stop offset="0"/><stop offset="0.12" stop-color="#030303"/><stop offset="0.23" stop-color="#0e0e0e"/><stop offset="0.33" stop-color="#202020"/><stop offset="0.43" stop-color="#393939"/><stop offset="0.53" stop-color="#5a5a5a"/><stop offset="0.61" stop-color="#7a7a7a"/><stop offset="1" stop-color="#fff"/></linearGradient><filter id="luminosity-noclip-2" x="24.33" y="26.42" width="56.38" height="56.38" filterUnits="userSpaceOnUse" color-interpolation-filters="sRGB"><feFlood flood-color="#fff" result="bg"/><feBlend in="SourceGraphic" in2="bg"/></filter><mask id="mask-2" x="24.33" y="26.42" width="56.38" height="56.38" maskUnits="userSpaceOnUse"><g class="cls-1"><path class="cls-2" d="M60,26.42A28.78,28.78,0,0,1,32.4,63.26a28.62,28.62,0,0,1-8.07-1.16A28.76,28.76,0,1,0,60,26.42Z"/></g></mask><linearGradient id="linear-gradient-2" x1="36.09" y1="41.7" x2="84.73" y2="79.55" gradientUnits="userSpaceOnUse"><stop offset="0"/><stop offset="0.57"/><stop offset="0.61"/><stop offset="1" stop-color="#404040"/></linearGradient></defs><g id="Layer_2" data-name="Layer 2"><path class="cls-3" d="M82.82,26.07A4.87,4.87,0,1,1,78,21.21,4.87,4.87,0,0,1,82.82,26.07Z"/><path class="cls-4" d="M79.19,21.38a4.85,4.85,0,0,1-3.51,8.21,4.93,4.93,0,0,1-1.23-.16,4.86,4.86,0,1,0,4.74-8Z"/><path class="cls-5" d="M66.32,19.24a2.42,2.42,0,1,1-3.42,0A2.43,2.43,0,0,1,66.32,19.24Z"/><path class="cls-4" d="M63.42,18.88A2.42,2.42,0,0,1,65.07,23a2.18,2.18,0,0,1-.49.37,2.36,2.36,0,0,0,1.77-.7,2.41,2.41,0,0,0-2.93-3.79Z"/><path class="cls-3" d="M70.54,32.09a28.72,28.72,0,0,0-31.75-3.64,30.9,30.9,0,0,1,17.9,7.47C60.6,39.34,66,36.6,70.54,32.09Z"/><path class="cls-5" d="M77.33,40.52a29.06,29.06,0,0,0-6.79-8.43C66,36.6,60.6,39.34,56.69,35.92a30.9,30.9,0,0,0-17.9-7.47,28.59,28.59,0,0,0-6.06,4.19c8.64.6,16.9,8,24.77,13C65.62,51.42,72.34,47.34,77.33,40.52Z"/><path class="cls-6" d="M29.4,71.89A28.68,28.68,0,0,0,51.94,82.8q.69,0,1.38,0C46.2,76.63,38,71.79,29.4,71.89Z"/><path class="cls-7" d="M26.57,61.16a11.31,11.31,0,0,0-2.73-.94A28.58,28.58,0,0,0,29.4,71.89c8.6-.1,16.8,4.74,23.92,10.88a28.66,28.66,0,0,0,17.8-7.32C54.47,82.54,40.12,68.34,26.57,61.16Z"/><path class="cls-8" d="M72.16,65.23c-17.1,5.7-30.94-4.89-44-14.66a6.83,6.83,0,0,0-4.62-1.27,28.59,28.59,0,0,0,.27,10.92,11.31,11.31,0,0,1,2.73.94c13.55,7.18,27.9,21.38,44.55,14.29A28.69,28.69,0,0,0,80,60.56,18.68,18.68,0,0,1,72.16,65.23Z"/><path class="cls-9" d="M28.19,50.57c13,9.77,26.87,20.36,44,14.66A18.68,18.68,0,0,0,80,60.56,28.67,28.67,0,0,0,80.7,54c0-.8,0-1.58-.1-2.36-3.93,2-8.43,3.24-12.51,4.6C53.43,62,46.11,49,34.71,41.62A9.1,9.1,0,0,0,27,39.71a28.78,28.78,0,0,0-3.43,9.59A6.83,6.83,0,0,1,28.19,50.57Z"/><path class="cls-10" d="M34.71,41.62C46.11,49,53.43,62,68.09,56.27c4.08-1.36,8.58-2.58,12.51-4.6a28.64,28.64,0,0,0-3.27-11.15c-5,6.82-11.71,10.9-19.83,5.17-7.87-5.06-16.13-12.45-24.77-13A28.78,28.78,0,0,0,27,39.71,9.1,9.1,0,0,1,34.71,41.62Z"/><g class="cls-11"><path class="cls-12" d="M60,26.42A28.78,28.78,0,0,1,32.4,63.26a28.62,28.62,0,0,1-8.07-1.16A28.76,28.76,0,1,0,60,26.42Z"/></g><path class="cls-13" d="M45.27,31.84c.86,1.14,0,3.28-2,4.78s-4.29,1.79-5.16.64,0-3.28,2-4.78S44.4,30.7,45.27,31.84Z"/></g></svg>