<svg xmlns="http://www.w3.org/2000/svg" xmlns:xlink="http://www.w3.org/1999/xlink" viewBox="0 0 106 101.33"><defs><style>.cls-1{mask:url(#mask);filter:url(#luminosity-noclip-2);}.cls-2{mix-blend-mode:multiply;fill:url(#linear-gradient);}.cls-3{fill:#bfddda;}.cls-4{opacity:0.2;}.cls-5{fill:#70797a;}.cls-6{fill:#829899;}.cls-7{fill:#9eb5b5;}.cls-8{fill:#adc9c8;}.cls-9{fill:#d0eae7;}.cls-10{fill:#e4f4f2;}.cls-11{fill:#f3fffd;}.cls-12{mask:url(#mask-2);}.cls-13{fill:url(#linear-gradient-2);}.cls-14{fill:#fff;opacity:0.7;}.cls-15{filter:url(#luminosity-noclip);}</style><filter id="luminosity-noclip" x="27.36" y="-7755.67" width="56.38" height="32766" filterUnits="userSpaceOnUse" color-interpolation-filters="sRGB"><feFlood flood-color="#fff" result="bg"/><feBlend in="SourceGraphic" in2="bg"/></filter><mask id="mask" x="27.36" y="-7755.67" width="56.38" height="32766" maskUnits="userSpaceOnUse"><g class="cls-15"/></mask><linearGradient id="linear-gradient" x1="39.12" y1="37.44" x2="87.76" y2="75.29" gradientUnits="userSpaceOnUse"><stop offset="0"/><stop offset="0.12" stop-color="#030303"/><stop offset="0.23" stop-color="#0e0e0e"/><stop offset="0.33" stop-color="#202020"/><stop offset="0.43" stop-color="#393939"/><stop offset="0.53" stop-color="#5a5a5a"/><stop offset="0.61" stop-color="#7a7a7a"/><stop offset="1" stop-color="#fff"/></linearGradient><filter id="luminosity-noclip-2" x="27.36" y="22.16" width="56.38" height="56.38" filterUnits="userSpaceOnUse" color-interpolation-filters="sRGB"><feFlood flood-color="#fff" result="bg"/><feBlend in="SourceGraphic" in2="bg"/></filter><mask id="mask-2" x="27.36" y="22.16" width="56.38" height="56.38" maskUnits="userSpaceOnUse"><g class="cls-1"><path class="cls-2" d="M63,22.16A28.76,28.76,0,0,1,27.36,57.84,28.77,28.77,0,1,0,63,22.16Z"/></g></mask><linearGradient id="linear-gradient-2" x1="39.12" y1="37.44" x2="87.76" y2="75.29" gradientUnits="userSpaceOnUse"><stop offset="0"/><stop offset="0.57"/><stop offset="0.61"/><stop offset="1" stop-color="#404040"/></linearGradient></defs><g id="Layer_2" data-name="Layer 2"><path class="cls-3" d="M32,23.15a4.86,4.86,0,1,1-4.86-4.86A4.86,4.86,0,0,1,32,23.15Z"/><path class="cls-4" d="M28.33,18.46a4.86,4.86,0,0,1-3.52,8.21,4.92,4.92,0,0,1-1.22-.16,4.86,4.86,0,1,0,4.74-8Z"/><path class="cls-5" d="M52.39,70.34c-6.27-1-14.26-.5-20.07-2.84A28.78,28.78,0,0,0,58.69,78.3C57.72,74.4,55.87,71.21,52.39,70.34Z"/><path class="cls-6" d="M52.39,64.65c-5.7-1.63-11.39,0-16.28-3.26-6.51-4.89-9-16.28-3.26-23.61.92-.92.8-3.63-.34-6a28.74,28.74,0,0,0-.19,35.7c5.81,2.34,13.8,1.88,20.07,2.84,3.48.87,5.33,4.06,6.3,8a28.86,28.86,0,0,0,5.75-1.36C62.68,70.83,58.83,65.85,52.39,64.65Z"/><path class="cls-7" d="M41.81,54.88c-1.63-.82-2.44-2.45-3.26-4.08C36.11,45.11,42.62,40.22,41,34.52a16.81,16.81,0,0,0-3.51-7.58,29.74,29.74,0,0,0-5,4.86c1.14,2.35,1.26,5.06.34,6-5.7,7.33-3.25,18.72,3.26,23.61C41,64.65,46.69,63,52.39,64.65c6.44,1.2,10.29,6.18,12,12.29A28.76,28.76,0,0,0,71,73.62c-3.58-3.69-5.83-9.39-8.06-13.86C58.91,53.25,49.14,58.13,41.81,54.88Z"/><path class="cls-8" d="M73.56,64.65c-4.07-11.4-9.77-16.29-22-17.1-1.63,0-4.07-1.63-3.26-3.26,3.58-7.14,2.79-16.89-3-21.62a28.59,28.59,0,0,0-7.85,4.27A16.81,16.81,0,0,1,41,34.52c1.62,5.7-4.89,10.59-2.45,16.28.82,1.63,1.63,3.26,3.26,4.08,7.33,3.25,17.1-1.63,21.17,4.88,2.23,4.47,4.48,10.17,8.06,13.86a28.71,28.71,0,0,0,7.11-6.84C75.91,66.57,74.15,65.82,73.56,64.65Z"/><path class="cls-3" d="M76.82,56.5c-2.44-12.21-9.77-12.21-19.54-14.65a4.34,4.34,0,0,1-2.44-3.26c2.32-5.22,3.4-13.35-.31-17.58a28.55,28.55,0,0,0-9.19,1.66c5.77,4.73,6.56,14.48,3,21.62-.81,1.63,1.63,3.26,3.26,3.26,12.21.81,17.91,5.7,22,17.1.59,1.17,2.35,1.92,4.59,2.13a28.83,28.83,0,0,0,4.11-7.9C79.37,59.53,76.82,58.9,76.82,56.5Z"/><path class="cls-9" d="M80.08,48.36C78.45,36.15,64.61,41,62.16,34.52c-1-2.59,1.22-8.14.49-12.47A28.65,28.65,0,0,0,55,21h-.44c3.71,4.23,2.63,12.36.31,17.58a4.34,4.34,0,0,0,2.44,3.26c9.77,2.44,17.1,2.44,19.54,14.65,0,2.4,2.55,3,5.44,2.38a28.79,28.79,0,0,0,1.46-8.24C81.78,50.54,80.08,49.7,80.08,48.36Z"/><path class="cls-10" d="M69.79,25.12a28.9,28.9,0,0,0-7.14-3.07c.73,4.33-1.52,9.88-.49,12.47C64.61,41,78.45,36.15,80.08,48.36c0,1.34,1.7,2.18,3.64,2.28,0-.29,0-.58,0-.87a28.58,28.58,0,0,0-3.39-13.54C73.16,37.7,70.75,32.48,69.79,25.12Z"/><path class="cls-11" d="M69.79,25.12c1,7.36,3.37,12.58,10.56,11.11A28.91,28.91,0,0,0,69.79,25.12Z"/><g class="cls-12"><path class="cls-13" d="M63,22.16A28.76,28.76,0,0,1,27.36,57.84,28.77,28.77,0,1,0,63,22.16Z"/></g><path class="cls-14" d="M46.32,30.25c.86,1.14,0,3.28-2,4.78s-4.29,1.79-5.15.64,0-3.28,2-4.78S45.45,29.11,46.32,30.25Z"/></g></svg>