<svg xmlns="http://www.w3.org/2000/svg" xmlns:xlink="http://www.w3.org/1999/xlink" viewBox="0 0 106 101.33"><defs><style>.cls-1{mask:url(#mask);filter:url(#luminosity-noclip-2);}.cls-2{mix-blend-mode:multiply;fill:url(#linear-gradient);}.cls-3{fill:#ffd400;}.cls-4{fill:#fff;}.cls-5{fill:#66acff;}.cls-6{fill:#fffcf0;}.cls-7{fill:#66edff;}.cls-8{fill:#323232;}.cls-9{mask:url(#mask-2);}.cls-10{fill:url(#linear-gradient-2);}.cls-11{filter:url(#luminosity-noclip);}</style><filter id="luminosity-noclip" x="34.9" y="-7628.33" width="46.93" height="32766" filterUnits="userSpaceOnUse" color-interpolation-filters="sRGB"><feFlood flood-color="#fff" result="bg"/><feBlend in="SourceGraphic" in2="bg"/></filter><mask id="mask" x="34.9" y="-7628.33" width="46.93" height="32766" maskUnits="userSpaceOnUse"><g class="cls-11"/></mask><linearGradient id="linear-gradient" x1="638.04" y1="-171.39" x2="673.93" y2="-172.17" gradientTransform="translate(-531.65 -264.8) rotate(42.37)" gradientUnits="userSpaceOnUse"><stop offset="0.19"/><stop offset="0.25" stop-color="#030303"/><stop offset="0.3" stop-color="#0e0e0e"/><stop offset="0.35" stop-color="#202020"/><stop offset="0.4" stop-color="#393939"/><stop offset="0.45" stop-color="#5a5a5a"/><stop offset="0.48" stop-color="#7a7a7a"/><stop offset="0.82" stop-color="#fff"/></linearGradient><filter id="luminosity-noclip-2" x="34.9" y="21.99" width="46.93" height="49.06" filterUnits="userSpaceOnUse" color-interpolation-filters="sRGB"><feFlood flood-color="#fff" result="bg"/><feBlend in="SourceGraphic" in2="bg"/></filter><mask id="mask-2" x="34.9" y="21.99" width="46.93" height="49.06" maskUnits="userSpaceOnUse"><g class="cls-1"><path class="cls-2" d="M56.92,66.75a.67.67,0,0,0,.06-.93l11-12.06,4.62-5.08a37.37,37.37,0,0,0,4.76-7.38.05.05,0,0,1,0,0c3.16-6.13,5.76-13.88,3.84-17.51,0-.07-.07-.13-.1-.2l-.23-.34a3.62,3.62,0,0,0-.36-.42.5.5,0,0,1-.07-.08h0v0a4.89,4.89,0,0,0-.64-.45h0A4.46,4.46,0,0,0,79,22a36,36,0,0,1-9.26,18.77C60.43,50.94,47.46,54.81,38,51l-2.81,3.09a1.43,1.43,0,0,0-.17,1.58s3.57,6.07,7,9.17,9.79,6.07,9.79,6.07a1.44,1.44,0,0,0,1.56-.31Z"/></g></mask><linearGradient id="linear-gradient-2" x1="638.04" y1="-171.39" x2="673.93" y2="-172.17" gradientTransform="translate(-531.65 -264.8) rotate(42.37)" gradientUnits="userSpaceOnUse"><stop offset="0.19"/><stop offset="0.47"/><stop offset="0.48"/><stop offset="0.82" stop-color="#404040"/></linearGradient></defs><g id="Layer_2" data-name="Layer 2"><path class="cls-3" d="M36.06,59.81A9.59,9.59,0,0,1,55.13,62a9.38,9.38,0,0,1-8.88,8.42c-.16,0-9,10.39-9.67,10.06s8.42-10,8.25-10l-.3,0c-.89-.1-17.27,17.84-18.77,17C23.92,86.28,41.57,69.6,41.37,69.5A11.84,11.84,0,0,1,40,68.63C39.85,68.52,27.3,81.84,26.29,81,25,79.85,38.22,67,38.07,66.84s-.34-.45-.49-.68S18.47,85.33,17,84.13c-1.07-.88,19.5-20.21,19.42-20.56,0,0-.12-1.21-.4-1-2,1.22-10.17,8.31-10.74,7.61C24.34,69,36,60.56,36.06,59.81Z"/><path class="cls-4" d="M79.19,37.63,65.52,25.27l3,1.41A20.65,20.65,0,0,1,74,30.52a21,21,0,0,1,3.37,4.18Z"/><rect class="cls-5" x="71.86" y="22.32" width="15.24" height="3" transform="translate(8.33 66.5) rotate(-47.64)"/><path class="cls-5" d="M54.38,34.2a2,2,0,0,0-2.78.12l-15.54,17a3,3,0,0,1-3.14.69L17.53,45.6c-1-.42-1.16-.16-.37.57L28.6,56.61l2.91,2.65.55.5a2,2,0,0,0,2.77-.13L38,56.18l2.65-2.91,14.42-15.8a2,2,0,0,0-.13-2.78Z"/><path class="cls-5" d="M71.78,49.41a2,2,0,0,1,.13,2.78l-15.54,17a3,3,0,0,0-.4,3.19l7.82,14.74c.51.95.27,1.14-.53.41L51.82,77.12l-2.9-2.65-.55-.5a2,2,0,0,1-.13-2.78l3.15-3.45L54,64.84,68.46,49a2,2,0,0,1,2.77-.13Z"/><path class="cls-6" d="M79.71,23.49C75,19.16,59,29,54.63,33.73L50,38.81,37.33,52.76A29.68,29.68,0,0,0,54.59,68.44L67.27,54.49l4.62-5.08C76.22,44.64,84.48,27.82,79.71,23.49Z"/><path class="cls-7" d="M70.76,33.4a28.81,28.81,0,0,1,6.35,8.18C80.61,34.79,83.44,26,80.18,23s-11.76.69-18.2,4.81A29,29,0,0,1,70.76,33.4Z"/><path class="cls-7" d="M66.4,46.11a5.36,5.36,0,1,0-7.57.36A5.36,5.36,0,0,0,66.4,46.11ZM60,45.19A3.62,3.62,0,1,1,65.12,45,3.62,3.62,0,0,1,60,45.19Z"/><path class="cls-8" d="M64.87,39.83A3.62,3.62,0,1,0,65.12,45,3.62,3.62,0,0,0,64.87,39.83Z"/><path class="cls-7" d="M88.48,18.88a3.32,3.32,0,1,1-.22-4.68A3.32,3.32,0,0,1,88.48,18.88Z"/><path class="cls-7" d="M46.69,59.45c-3.42-3.1-7-9.17-7-9.17a.69.69,0,0,0-1.16-.12L35,54a1.43,1.43,0,0,0-.17,1.58s3.57,6.07,7,9.17,9.79,6.07,9.79,6.07a1.44,1.44,0,0,0,1.56-.31l3.52-3.88a.68.68,0,0,0-.23-1.14S50.1,62.56,46.69,59.45Z"/><g class="cls-9"><path class="cls-10" d="M56.92,66.75a.67.67,0,0,0,.06-.93l11-12.06,4.62-5.08a37.37,37.37,0,0,0,4.76-7.38.05.05,0,0,1,0,0c3.16-6.13,5.76-13.88,3.84-17.51,0-.07-.07-.13-.1-.2l-.23-.34a3.62,3.62,0,0,0-.36-.42.5.5,0,0,1-.07-.08h0v0a4.89,4.89,0,0,0-.64-.45h0A4.46,4.46,0,0,0,79,22a36,36,0,0,1-9.26,18.77C60.43,50.94,47.46,54.81,38,51l-2.81,3.09a1.43,1.43,0,0,0-.17,1.58s3.57,6.07,7,9.17,9.79,6.07,9.79,6.07a1.44,1.44,0,0,0,1.56-.31Z"/></g></g></svg>