<svg xmlns="http://www.w3.org/2000/svg" xmlns:xlink="http://www.w3.org/1999/xlink" viewBox="0 0 106 101.33"><defs><style>.cls-1{mask:url(#mask);filter:url(#luminosity-noclip-2);}.cls-2{mix-blend-mode:multiply;fill:url(#linear-gradient);}.cls-3{fill:#fff871;}.cls-4{fill:#ffa727;}.cls-5{fill:#9e713b;}.cls-6{fill:#b75f00;}.cls-7{mask:url(#mask-2);}.cls-8{fill:url(#linear-gradient-2);}.cls-9{fill:#fff;opacity:0.7;}.cls-10,.cls-14{fill:#fffa94;}.cls-10,.cls-13{opacity:0.5;}.cls-11{fill:#ffb208;}.cls-12{fill:#ffd00b;}.cls-15{filter:url(#luminosity-noclip);}</style><filter id="luminosity-noclip" x="32.52" y="-7891" width="43.67" height="32766" filterUnits="userSpaceOnUse" color-interpolation-filters="sRGB"><feFlood flood-color="#fff" result="bg"/><feBlend in="SourceGraphic" in2="bg"/></filter><mask id="mask" x="32.52" y="-7891" width="43.67" height="32766" maskUnits="userSpaceOnUse"><g class="cls-15"/></mask><linearGradient id="linear-gradient" x1="41.64" y1="44.22" x2="79.32" y2="73.54" gradientUnits="userSpaceOnUse"><stop offset="0"/><stop offset="0.12" stop-color="#030303"/><stop offset="0.23" stop-color="#0e0e0e"/><stop offset="0.33" stop-color="#202020"/><stop offset="0.43" stop-color="#393939"/><stop offset="0.53" stop-color="#5a5a5a"/><stop offset="0.61" stop-color="#7a7a7a"/><stop offset="1" stop-color="#fff"/></linearGradient><filter id="luminosity-noclip-2" x="32.52" y="32.38" width="43.67" height="43.67" filterUnits="userSpaceOnUse" color-interpolation-filters="sRGB"><feFlood flood-color="#fff" result="bg"/><feBlend in="SourceGraphic" in2="bg"/></filter><mask id="mask-2" x="32.52" y="32.38" width="43.67" height="43.67" maskUnits="userSpaceOnUse"><g class="cls-1"><path class="cls-2" d="M60.17,32.38A22.28,22.28,0,0,1,32.52,60,22.29,22.29,0,1,0,60.17,32.38Z"/></g></mask><linearGradient id="linear-gradient-2" x1="41.64" y1="44.22" x2="79.32" y2="73.54" gradientUnits="userSpaceOnUse"><stop offset="0"/><stop offset="0.57"/><stop offset="0.61"/><stop offset="1" stop-color="#404040"/></linearGradient></defs><g id="Layer_2" data-name="Layer 2"><path class="cls-3" d="M48.81,32.11l-.64.14a24.44,24.44,0,0,0-3,1c-.56.24-1.12.5-1.67.79s-1.07.59-1.59.92C44.47,35,47.42,34.08,48.81,32.11Z"/><path class="cls-4" d="M52.57,31.53c-.46,0-.93.08-1.38.13a23.25,23.25,0,0,0-2.38.45C47.42,34.08,44.47,35,42,35l-.35.21a21.81,21.81,0,0,0-2.73,2.14C43.87,39.64,50.13,36.48,52.57,31.53Z"/><path class="cls-5" d="M54.88,31.51l-1,0c-.45,0-.9,0-1.34,0-2.44,4.95-8.7,8.11-13.69,5.8a22.32,22.32,0,0,0-2.26,2.41C43.15,42.68,51.82,38.32,54.88,31.51Z"/><path class="cls-6" d="M52,40.79c2.74-2.29,5.48-5.36,6.73-8.76-.48-.11-1-.21-1.46-.29l-1-.13c-.46,0-.93-.08-1.4-.1-3.06,6.81-11.73,11.17-18.26,8.23-.34.42-.67.86-1,1.3C40.49,44.64,47.6,43.73,52,40.79Z"/><path class="cls-4" d="M59.65,32.24c-.3-.07-.59-.15-.9-.21-1.25,3.4-4,6.47-6.73,8.76-4.42,2.94-11.53,3.85-16.38.25-.16.22-.32.45-.46.68-.38.58-.72,1.19-1,1.82-.22.43-.43.88-.63,1.33l-.18.45C43.82,49.08,55.87,42.89,59.65,32.24Z"/><path class="cls-3" d="M63,33.44a21.36,21.36,0,0,0-3.17-1.15l-.19,0C55.87,42.89,43.82,49.08,33.32,45.32a19.55,19.55,0,0,0-.76,2.15c-.09.28-.16.58-.23.87C44.53,51.73,59.11,45.21,63,33.44Z"/><path class="cls-4" d="M65.76,34.92a20.93,20.93,0,0,0-2.55-1.4l-.2-.08c-3.9,11.77-18.48,18.29-30.68,14.9-.06.21-.12.42-.17.63-.15.69-.26,1.4-.35,2.11C45,54.55,58.37,46.36,65.76,34.92Z"/><path class="cls-5" d="M68.36,36.83c-.44-.37-.88-.73-1.35-1.07s-.82-.57-1.25-.84C58.37,46.36,45,54.55,31.81,51.08c-.06.48-.12,1-.15,1.45s0,.83,0,1.24c0,.24,0,.47,0,.7s0,.36,0,.54C45.48,58.48,61.32,49.75,68.36,36.83Z"/><path class="cls-6" d="M70.13,38.52c-.07-.07-.12-.14-.18-.21-.51-.52-1-1-1.59-1.48C61.32,49.75,45.48,58.48,31.68,55c0,.3,0,.59.06.89.06.58.14,1.15.24,1.72.06.38.14.76.23,1.13C47,61.1,63,51.58,70.13,38.52Z"/><path class="cls-3" d="M72,40.86a22.66,22.66,0,0,0-1.91-2.34C63,51.58,47,61.1,32.21,58.75c.07.3.14.59.22.88a22,22,0,0,0,.87,2.56l.07.18C45.06,64.72,55.9,59.32,64,51.2A72.1,72.1,0,0,0,72,40.86Z"/><path class="cls-4" d="M75,46.51a22,22,0,0,0-1.14-2.74,24.39,24.39,0,0,0-1.41-2.43L72,40.86A72.1,72.1,0,0,1,64,51.2c-8.13,8.12-19,13.52-30.66,11.17.25.59.53,1.18.83,1.75a22.91,22.91,0,0,0,1.33,2.17C51.67,68.68,65.93,59.51,75,46.51Z"/><path class="cls-4" d="M76.19,53.58a21.68,21.68,0,0,0-.46-4.29c-.07-.35-.15-.69-.24-1C69.6,61.91,52.7,70.13,37.9,69.21c.37.39.76.77,1.16,1.13a20.6,20.6,0,0,0,1.87,1.48c13.74.51,26-6.08,35.16-16,.06-.68.11-1.36.11-2.06C76.2,53.71,76.19,53.64,76.19,53.58Z"/><path class="cls-3" d="M40.93,71.82c.29.22.58.43.88.63a22.05,22.05,0,0,0,2.9,1.6l.53.22c11.33-.91,23.51-6,30.17-14.66a22.3,22.3,0,0,0,.68-3.78C66.93,65.74,54.67,72.33,40.93,71.82Z"/><path class="cls-4" d="M61.11,74.87a22.34,22.34,0,0,0,8.58-5.39C65.16,72.57,59.38,73.78,54.3,76A22.21,22.21,0,0,0,61.11,74.87Z"/><path class="cls-5" d="M73.16,65A50.76,50.76,0,0,1,47.55,75.11a20.69,20.69,0,0,0,2.5.6,21.48,21.48,0,0,0,3.86.35l.39,0c5.08-2.26,10.86-3.47,15.39-6.56a21.09,21.09,0,0,0,1.67-1.86A22.62,22.62,0,0,0,73.16,65Z"/><path class="cls-4" d="M45.24,74.27a22.68,22.68,0,0,0,2.31.84A50.76,50.76,0,0,0,73.16,65a22.31,22.31,0,0,0,2.15-5c0-.13.07-.26.1-.4C68.75,68.3,56.57,73.36,45.24,74.27Z"/><path class="cls-5" d="M75.49,48.26c-.11-.43-.23-.87-.37-1.29-.05-.16-.11-.31-.17-.46-9,13-23.28,22.17-39.42,19.78l.33.5a21.56,21.56,0,0,0,1.4,1.73c.2.24.42.46.64.69C52.7,70.13,69.6,61.91,75.49,48.26Z"/><g class="cls-7"><path class="cls-8" d="M60.17,32.38A22.28,22.28,0,0,1,32.52,60,22.29,22.29,0,1,0,60.17,32.38Z"/></g><path class="cls-4" d="M57.59,31.58a21.61,21.61,0,0,1,4.32,1.26c12.83-6.69,23.29-9,26-5.13s-2.61,12.41-12.56,21.9A138.76,138.76,0,0,1,59.94,62.22a137.14,137.14,0,0,1-17,10.35c-12.27,6.21-22.17,8.3-24.84,4.52s2.95-13,13.53-22.82a22.54,22.54,0,0,1,.26-4.5C16.32,63.15,7.55,76.3,11.42,81.78c3.74,5.29,18.18,1.85,35.22-7.56a164.62,164.62,0,0,0,15.07-9.49,161.92,161.92,0,0,0,14-11C90.25,40.78,98.32,28.32,94.58,23,90.71,17.55,75.39,21.42,57.59,31.58Z"/><path class="cls-3" d="M61.91,32.84a20,20,0,0,1,2.3,1.08l.81.47c8.61-4,15.26-5.22,17.12-2.58s-1.29,8.13-7.53,14.64A113.77,113.77,0,0,1,58.44,60.11,113,113,0,0,1,40.17,70.78C32,74.49,25.66,75.54,23.86,73S25.36,64.5,32,57.71a9.32,9.32,0,0,1-.17-.92,21.53,21.53,0,0,1-.26-2.52C21,64.12,15.3,73.19,18.05,77.09s12.57,1.69,24.84-4.52a137.14,137.14,0,0,0,17-10.35A138.76,138.76,0,0,0,75.39,49.61c10-9.49,15.22-18.13,12.56-21.9S74.74,26.15,61.91,32.84Z"/><path class="cls-6" d="M65,34.39c.45.27.9.56,1.33.86.59.42,1.17.87,1.72,1.35,4.74-2,8.12-2.58,9.06-1.25s-.63,4.15-3.91,7.8A104.78,104.78,0,0,1,56.53,57.39a104.61,104.61,0,0,1-19,11c-4.52,1.87-7.73,2.37-8.65,1.08s.73-4.33,4.21-8.12a19.55,19.55,0,0,1-.7-2.08c-.15-.51-.27-1-.37-1.54C25.36,64.5,22,70.36,23.86,73s8.09,1.5,16.31-2.21A113,113,0,0,0,58.44,60.11,113.77,113.77,0,0,0,74.61,46.45c6.24-6.51,9.34-12.09,7.53-14.64S73.63,30.39,65,34.39Z"/><path class="cls-9" d="M40.92,42c1,.64.87,2.54-.25,4.25s-2.83,2.55-3.81,1.9-.86-2.54.26-4.24S39.94,41.3,40.92,42Z"/><path class="cls-10" d="M89.62,64A2.13,2.13,0,0,1,88,62.83c-.2.07-.31.15-.34.31-.07.35.75,1.25,1.65,1.34a7.56,7.56,0,0,0,3.26-.67c.22-.16.28-.29.25-.39A8,8,0,0,1,89.62,64Z"/><path class="cls-11" d="M94.57,60.06c0,3-1.76,4.68-4.75,4.68-1.87,0-5.11.37-6.08-1.07-.58-.86,0-3.29,0-4.41,0-1.7,1.45-3.15,2.68-4.14.93-.76,2.31-.14,3.6-.14,1.5,0,3.7-.31,4.68.67S94.57,58.57,94.57,60.06Z"/><path class="cls-12" d="M85.19,56.7c-.38.6.48,1.12,1.19,1a1.71,1.71,0,0,0,1.32-1.27c.14-.65-.18-1.49-.93-1.11A6.39,6.39,0,0,0,85.19,56.7Z"/><path class="cls-10" d="M85.73,56.9a6.39,6.39,0,0,1,1.58-1.36.67.67,0,0,1,.24-.08.55.55,0,0,0-.78-.16,6.63,6.63,0,0,0-1.58,1.36c-.3.48.16.89.71,1A.54.54,0,0,1,85.73,56.9Z"/><path class="cls-12" d="M88.15,55.18c-.35.1-.4.79-.06,1.17s.36.84,1.08.85a3.1,3.1,0,0,0,2.21-.88c.32-.5.57-1,0-1.12s-1.08.14-1.63.13C88.8,55.32,88.5,55.08,88.15,55.18Z"/><path class="cls-10" d="M88.65,56.73c-.33-.39-.28-1.06.07-1.16s.64.13,1.59.15c.48,0,.91-.2,1.41-.17,0-.19-.06-.33-.33-.39a8,8,0,0,0-1.63.14c-1,0-1.26-.25-1.61-.15s-.4.78-.06,1.17.35.73.85.83A2.86,2.86,0,0,0,88.65,56.73Z"/><path class="cls-12" d="M92.06,56a1,1,0,0,1,.62-.64,1.74,1.74,0,0,1,1.39.29,1.72,1.72,0,0,1,.55,1.75c-.28.76-.6,1-.72,1.42s.07,1-1.05.89-2.32-.32-2.24-1.19.57-1,1-1.45A2.13,2.13,0,0,0,92.06,56Z"/><path class="cls-10" d="M91.45,59c.08-.87.56-1,1-1.46a2.06,2.06,0,0,0,.49-1.07,1,1,0,0,1,.62-.63,1.75,1.75,0,0,1,.65,0l-.1-.1a1.74,1.74,0,0,0-1.39-.28,1,1,0,0,0-.62.63,2.1,2.1,0,0,1-.48,1.07c-.4.42-.89.59-1,1.46,0,.55.42.84,1.06,1A.68.68,0,0,1,91.45,59Z"/><path class="cls-12" d="M88.1,57.49c.52.14,1.74-.24,2.06-.17s.47,0,.38.45-.37.59-.21,1.09a2,2,0,0,0,.83,1c.27.2.42.34.47,1s-2.69,1.5-3.38,1.35-2.09-1-2.19-1.8-.75-1.86-.11-2.11S87.28,57.25,88.1,57.49Z"/><path class="cls-10" d="M87.51,61.05c-.1-.76-.75-1.87-.11-2.11s1.33-1,2.15-.78a2.53,2.53,0,0,0,.86,0,1.6,1.6,0,0,0,.13-.37c.09-.43-.06-.38-.38-.45s-1.54.31-2.06.17c-.82-.24-1.45.51-2.15.78s0,1.36.11,2.11,1.51,1.65,2.19,1.8l.17,0A2.11,2.11,0,0,1,87.51,61.05Z"/><path class="cls-12" d="M92.06,59.93s-.25,0-.21.33a3.44,3.44,0,0,1,0,1.15c-.1.34-.54.64.16,1s1.22.48,1.67.13a1.73,1.73,0,0,0,.69-1.52c-.1-.52.2-1.17-.3-1.22s-.25.15-.84.2A3.42,3.42,0,0,1,92.06,59.93Z"/><path class="cls-10" d="M92.2,61.84a3.51,3.51,0,0,0,0-1.16c0-.31.21-.33.21-.33a3.27,3.27,0,0,0,1.12.12c.54,0,.37-.22.74-.21,0-.23-.06-.39-.3-.42-.5-.05-.25.15-.84.2a3.42,3.42,0,0,1-1.12-.11s-.25,0-.21.33a3.44,3.44,0,0,1,0,1.15c-.1.34-.54.64.16,1h0C91.94,62.24,92.13,62.05,92.2,61.84Z"/><path class="cls-12" d="M89.07,62.53c.92-.26,1.07-.75,2-.36a9.17,9.17,0,0,1,1.51,1c.27.17.43.34,0,.66a7.52,7.52,0,0,1-3.25.66c-.91-.08-1.72-1-1.66-1.33S88.15,62.8,89.07,62.53Z"/><path class="cls-12" d="M84.29,58.14s.2-.67.67-.6.32.3.39.65,0,.3.1.93a7.09,7.09,0,0,0,.35,1.64c.18.44.6.55.73.82s1,.75.17,1.09-2.42.48-2.71.08-.27-.75-.11-1.44A7.61,7.61,0,0,0,84,59.53,6.26,6.26,0,0,1,84.29,58.14Z"/><path class="cls-10" d="M84.84,62.46c-.29-.4-.27-.75-.12-1.44a7.62,7.62,0,0,0,.12-1.78,5.72,5.72,0,0,1,.3-1.39,1.23,1.23,0,0,1,.09-.21.46.46,0,0,0-.27-.1c-.47-.07-.67.6-.67.6a6.26,6.26,0,0,0-.3,1.39,7.61,7.61,0,0,1-.11,1.78c-.16.69-.17,1,.11,1.44s1.86.25,2.71-.08l.2-.1C86.06,62.75,85.06,62.77,84.84,62.46Z"/><path class="cls-12" d="M84.56,64a5.87,5.87,0,0,0,1.77.5c.4.06,1.61.15,1.54-.23s-.19-.37-.37-.74.15-.62-.07-.85-.21,0-.66.13a4.89,4.89,0,0,1-1.57.46c-.44-.07-.61-.1-1-.14S84.27,63.83,84.56,64Z"/><g class="cls-13"><path class="cls-14" d="M87.72,63.87a3,3,0,0,1-1.46.07,5.87,5.87,0,0,1-1.77-.5,1.58,1.58,0,0,1-.29-.29c-.37,0,.1.68.38.87a5.87,5.87,0,0,0,1.77.5c.4.06,1.61.15,1.54-.23A.87.87,0,0,0,87.72,63.87Z"/></g><path class="cls-9" d="M91.07,60.39c.11.15,0,.43-.27.63s-.56.23-.67.08,0-.43.26-.62S91,60.25,91.07,60.39Z"/><path class="cls-9" d="M86.25,61.9c0,.18-.2.38-.51.44s-.61,0-.65-.22.2-.39.52-.45S86.22,61.71,86.25,61.9Z"/><path class="cls-9" d="M86.76,57.14c0,.15-.24.24-.49.21s-.45-.18-.43-.33.24-.24.5-.2S86.78,57,86.76,57.14Z"/><path class="cls-9" d="M89.65,56.14c0,.15-.25.24-.5.21s-.45-.17-.43-.32.24-.24.5-.21S89.66,56,89.65,56.14Z"/><path class="cls-9" d="M94.07,57c-.11.11-.34,0-.52-.14s-.24-.41-.14-.52.34,0,.52.14S94.17,56.89,94.07,57Z"/><path class="cls-9" d="M93.69,61.67c.09.11,0,.34-.2.5s-.44.19-.53.07,0-.34.2-.5S93.6,61.55,93.69,61.67Z"/><path class="cls-9" d="M89.86,63.76c0,.15-.22.26-.48.24s-.46-.14-.45-.29.22-.26.48-.24S89.87,63.61,89.86,63.76Z"/><path class="cls-9" d="M87.56,64.15c0,.1-.15.18-.32.17s-.31-.1-.31-.2.15-.17.33-.16S87.56,64.06,87.56,64.15Z"/><path class="cls-10" d="M50.14,24.91a2.16,2.16,0,0,1-1-1.79c-.21,0-.34,0-.44.14s.15,1.45.93,1.91a7.37,7.37,0,0,0,3.24.77c.26-.05.37-.14.39-.24A8.16,8.16,0,0,1,50.14,24.91Z"/><path class="cls-11" d="M56.31,23.41c-1.26,2.71-3.57,3.49-6.28,2.23-1.7-.8-4.79-1.83-5.06-3.55-.16-1,1.4-3,1.87-4,.72-1.53,2.65-2.23,4.18-2.61,1.16-.29,2.16.85,3.33,1.4,1.35.63,3.48,1.28,3.95,2.59S56.94,22.05,56.31,23.41Z"/><path class="cls-12" d="M49.24,16.39c-.6.39,0,1.22.65,1.43a1.74,1.74,0,0,0,1.73-.59c.4-.54.46-1.43-.37-1.4A6.4,6.4,0,0,0,49.24,16.39Z"/><path class="cls-10" d="M49.64,16.8a6.4,6.4,0,0,1,2-.56.72.72,0,0,1,.26,0,.56.56,0,0,0-.65-.46,6.47,6.47,0,0,0-2,.56c-.46.3-.23.87.22,1.21A.55.55,0,0,1,49.64,16.8Z"/><path class="cls-12" d="M52.57,16.27c-.37-.06-.7.54-.56,1s0,.91.62,1.23a3.11,3.11,0,0,0,2.38.13c.5-.32.93-.66.48-1s-1-.33-1.54-.57C53.1,16.67,52.93,16.33,52.57,16.27Z"/><path class="cls-10" d="M52.36,17.88c-.14-.49.2-1.08.55-1s.53.39,1.38.81c.43.21.91.21,1.34.44.1-.16.09-.32-.12-.48-.48-.37-1-.33-1.54-.58-.86-.41-1-.75-1.39-.81s-.7.54-.56,1,0,.81.43,1.11C52.42,18.23,52.41,18.06,52.36,17.88Z"/><path class="cls-12" d="M55.76,18.67a1,1,0,0,1,.83-.32,1.74,1.74,0,0,1,1.14.85A1.73,1.73,0,0,1,57.48,21c-.57.56-1,.64-1.25,1s-.36.92-1.33.36-2-1.27-1.52-2,.95-.7,1.49-.91A2.14,2.14,0,0,0,55.76,18.67Z"/><path class="cls-10" d="M54,21.08c.44-.75.95-.69,1.49-.9a2.13,2.13,0,0,0,.89-.77,1,1,0,0,1,.83-.31,1.66,1.66,0,0,1,.6.26c0-.05,0-.09,0-.13a1.74,1.74,0,0,0-1.14-.85,1,1,0,0,0-.82.32,2.21,2.21,0,0,1-.9.76c-.54.21-1.05.16-1.49.91-.28.48,0,.94.53,1.36A.72.72,0,0,1,54,21.08Z"/><path class="cls-12" d="M51.54,18.34c.41.35,1.68.52,1.94.72s.41.21.15.57-.58.37-.65.89a2,2,0,0,0,.34,1.25c.15.29.23.48,0,1.09s-3.07.22-3.63-.21-1.45-1.83-1.22-2.56.11-2,.79-1.95S50.9,17.78,51.54,18.34Z"/><path class="cls-10" d="M49.5,21.31c.23-.72.11-2,.79-2s1.64-.35,2.28.21a2.55,2.55,0,0,0,.79.35,1.45,1.45,0,0,0,.27-.28c.26-.36.11-.38-.15-.57s-1.53-.37-1.94-.72c-.64-.56-1.53-.15-2.28-.2s-.56,1.23-.79,1.95.66,2.14,1.22,2.56l.15.09A2.06,2.06,0,0,1,49.5,21.31Z"/><path class="cls-12" d="M54.1,22.22s-.24-.09-.34.21a3.48,3.48,0,0,1-.53,1c-.24.26-.76.35-.29,1s.9,1,1.45.83a1.75,1.75,0,0,0,1.27-1.09c.13-.51.68-1,.24-1.23s-.29,0-.84-.18A3.19,3.19,0,0,1,54.1,22.22Z"/><path class="cls-10" d="M53.41,24a3.32,3.32,0,0,0,.53-1c.11-.3.34-.21.34-.21a3.32,3.32,0,0,0,1,.58c.51.18.42-.05.75.12.09-.2.11-.38-.1-.5-.43-.26-.29,0-.84-.18a3.19,3.19,0,0,1-1-.58s-.24-.09-.34.21a3.48,3.48,0,0,1-.53,1c-.24.26-.76.35-.29,1h0C53,24.27,53.26,24.17,53.41,24Z"/><path class="cls-12" d="M50.28,23.32c.95.15,1.29-.23,1.95.5a8.72,8.72,0,0,1,1,1.52c.17.26.25.48-.26.59a7.51,7.51,0,0,1-3.24-.77c-.78-.46-1.14-1.62-.93-1.91S49.34,23.17,50.28,23.32Z"/><path class="cls-12" d="M47.82,17.31s.46-.52.86-.26.16.41.07.75-.13.28-.31.89a7.07,7.07,0,0,0-.37,1.64c0,.47.31.75.32,1.05s.6,1.11-.31,1.05-2.4-.58-2.49-1.07.08-.79.5-1.35A7.3,7.3,0,0,0,47,18.44,5.59,5.59,0,0,1,47.82,17.31Z"/><path class="cls-10" d="M46.48,21.46c-.09-.48.08-.79.5-1.35a7.55,7.55,0,0,0,.87-1.57,5.59,5.59,0,0,1,.86-1.13.87.87,0,0,1,.17-.16.61.61,0,0,0-.2-.2c-.4-.26-.86.26-.86.26A5.59,5.59,0,0,0,47,18.44,7.3,7.3,0,0,1,46.09,20c-.42.56-.59.87-.5,1.35s1.57,1,2.49,1.07a.8.8,0,0,0,.22,0C47.47,22.24,46.55,21.84,46.48,21.46Z"/><path class="cls-12" d="M45.57,22.76A5.77,5.77,0,0,0,47,24c.33.22,1.39.81,1.49.44s0-.41,0-.82.4-.5.3-.8-.2-.1-.66-.17a4.92,4.92,0,0,1-1.62-.25,9.35,9.35,0,0,0-.85-.55C45.25,21.61,45.39,22.46,45.57,22.76Z"/><g class="cls-13"><path class="cls-14" d="M48.49,24a3,3,0,0,1-1.35-.55,6.2,6.2,0,0,1-1.39-1.21,1.38,1.38,0,0,1-.14-.38c-.33-.18-.2.65,0,.94A5.57,5.57,0,0,0,47,24c.34.22,1.39.81,1.49.44A.78.78,0,0,0,48.49,24Z"/></g><path class="cls-9" d="M53,22.23c0,.18-.19.38-.51.45s-.61,0-.64-.21.18-.38.5-.45S53,22,53,22.23Z"/><path class="cls-9" d="M48,21.55c0,.18-.34.26-.66.18s-.53-.29-.48-.47.34-.27.65-.19S48,21.37,48,21.55Z"/><path class="cls-9" d="M50.48,17.46c-.08.12-.32.11-.54,0s-.33-.35-.25-.47.32-.12.54,0S50.56,17.33,50.48,17.46Z"/><path class="cls-9" d="M53.51,17.77c-.08.13-.32.12-.54,0s-.33-.35-.25-.47.32-.12.54,0S53.59,17.65,53.51,17.77Z"/><path class="cls-9" d="M57.16,20.42c-.14,0-.33-.11-.41-.35s0-.48.09-.53.33.11.41.35S57.3,20.37,57.16,20.42Z"/><path class="cls-9" d="M54.83,24.49c0,.14-.14.31-.39.37s-.48,0-.51-.16.14-.31.39-.37S54.8,24.34,54.83,24.49Z"/><path class="cls-9" d="M50.48,24.76c-.07.13-.31.14-.54,0s-.36-.32-.29-.45.31-.14.54,0S50.55,24.63,50.48,24.76Z"/><path class="cls-9" d="M48.23,24.15c0,.09-.21.09-.36,0s-.24-.22-.2-.31.21-.09.37,0S48.27,24.06,48.23,24.15Z"/></g></svg>