<svg xmlns="http://www.w3.org/2000/svg" xmlns:xlink="http://www.w3.org/1999/xlink" viewBox="0 0 106 101.33"><defs><style>.cls-1{mask:url(#mask);filter:url(#luminosity-noclip-2);}.cls-2{mix-blend-mode:multiply;fill:url(#linear-gradient);}.cls-3{fill:#ffde3e;}.cls-4{fill:#fff8c2;}.cls-5{fill:#fff39c;}.cls-6{fill:#ffeb73;}.cls-7{fill:#ffbe06;}.cls-8{fill:#ffc533;}.cls-9{fill:#ff7415;}.cls-12,.cls-9{opacity:0.5;}.cls-10{fill:#fff;opacity:0.7;}.cls-11{fill:#ff8500;}.cls-12{fill:#fffa94;}.cls-13{mask:url(#mask-2);}.cls-14{fill:url(#linear-gradient-2);}.cls-15{filter:url(#luminosity-noclip);}</style><filter id="luminosity-noclip" x="31.4" y="-7755.67" width="50.81" height="32766" filterUnits="userSpaceOnUse" color-interpolation-filters="sRGB"><feFlood flood-color="#fff" result="bg"/><feBlend in="SourceGraphic" in2="bg"/></filter><mask id="mask" x="31.4" y="-7755.67" width="50.81" height="32766" maskUnits="userSpaceOnUse"><g class="cls-15"/></mask><linearGradient id="linear-gradient" x1="54.79" y1="50.52" x2="80.79" y2="70.75" gradientUnits="userSpaceOnUse"><stop offset="0"/><stop offset="1" stop-color="#fff"/></linearGradient><filter id="luminosity-noclip-2" x="31.4" y="26.79" width="50.81" height="50.82" filterUnits="userSpaceOnUse" color-interpolation-filters="sRGB"><feFlood flood-color="#fff" result="bg"/><feBlend in="SourceGraphic" in2="bg"/></filter><mask id="mask-2" x="31.4" y="26.79" width="50.81" height="50.82" maskUnits="userSpaceOnUse"><g class="cls-1"><path class="cls-2" d="M63.56,26.79A25.91,25.91,0,0,1,31.4,59,25.93,25.93,0,1,0,63.56,26.79Z"/></g></mask><linearGradient id="linear-gradient-2" x1="54.79" y1="50.52" x2="80.79" y2="70.75" gradientUnits="userSpaceOnUse"><stop offset="0" stop-color="#ff3b00"/><stop offset="1" stop-color="#ff8d00"/></linearGradient></defs><g id="Layer_2" data-name="Layer 2"><path class="cls-3" d="M85,41.58a31.94,31.94,0,0,0-1.42-3.47c-.54-1.12,4.68-6.48,4-7.52-.49-.77-6.85,2.76-7.41,2a30.11,30.11,0,0,0-2.65-3c-.55-.56,3.72-9.1,3.12-9.61-1.56-1.33-8.1,5.51-9.9,4.51-.9-.5-.62-5.16-1.57-5.57-.76-.32-2.73,3.59-3.52,3.33s-1.76-.55-2.67-.77c-.53-.13-.21-7.14-.75-7.24-1-.19-3,6.58-4.07,6.5-.76-.06-1.53-.09-2.3-.09-1,0-2.66-6.19-3.59-6.11-1.81.17-2.83,6.74-4.54,7.2-1,.28-2,.61-3,1S40.13,18,39.13,18.52c-1.18.61.22,7-.86,7.71-.54.37-1.06.77-1.57,1.17S30.76,24.51,30.22,25c-1,.93,2.86,5.74,2,6.8-.64.77-1.25,1.58-1.82,2.42-.31.46-9.38-5.48-9.67-5-.45.76,7.89,7.94,7.51,8.74s-.77,1.64-1.09,2.49-5.59.12-5.81.85,4.62,2.9,4.45,3.72-6.31.37-6.42,1.26c-.07.59,5.84,2.55,5.8,3.16s-.06,1.33-.06,2c0,.41-5.6,1.66-5.58,2.07,0,.79,5.7.73,5.79,1.5.07.61.16,1.22.27,1.82.15.87-7.8,4.89-7.57,5.74.17.67,8.52-1.84,8.74-1.19.13.39.27.77.42,1.15.27.71.57,1.41.9,2.09s-5.35,4.32-4.93,5c.3.53,6.72-1.78,7.05-1.27.45.68.93,1.34,1.43,2s-3.06,5.88-2.45,6.54,5.3-3.36,5.87-2.83a32.21,32.21,0,0,0,2.56,2.11c.26.19-2.05,7.63-1.78,7.81,1.64,1.14,6-5.13,7.82-4.32.76.32,1.53.62,2.32.89s-.59,7.17.12,7.35c1.08.29,4.16-6.21,5.28-6a30.36,30.36,0,0,0,4.5.33c1.23,0,3.36,9,4.56,8.89.57-.06.23-9.26.8-9.36.95-.17,1.89-.38,2.81-.63.45-.13,4.09,5.61,4.54,5.47.88-.29-1.44-6.49-.59-6.86a32,32,0,0,0,3-1.51c1.65-.94,7,2.64,8.4,1.42.66-.55-2.47-5.79-1.87-6.39a32.07,32.07,0,0,0,2.28-2.54c.61-.77,11.13,2.2,11.67,1.39.68-1-8.65-5.87-8.09-7a31.1,31.1,0,0,0,2.12-5.59c.21-.78,6.42.39,6.57-.41.22-1.19-5.65-4.36-5.56-5.59,0-.68.07-1.37.07-2.07,0-1.46,7-4.07,6.85-5.47-.15-1.08-7.51-1-7.77-2C85.49,43.18,85.25,42.37,85,41.58Z"/><path class="cls-4" d="M67.47,32.69a16.09,16.09,0,0,0,5.18-1A25.88,25.88,0,0,0,46.5,27.28C52.38,31.79,60.51,33.22,67.47,32.69Z"/><path class="cls-5" d="M74.81,36.36a8.17,8.17,0,0,1,1.53-.78,26.42,26.42,0,0,0-3.69-3.86,16.09,16.09,0,0,1-5.18,1c-7,.53-15.09-.9-21-5.41a25.84,25.84,0,0,0-8.2,5.1C48.64,40.59,61.45,44,74.81,36.36Z"/><path class="cls-6" d="M80.4,43.13a26,26,0,0,0-4.06-7.55,8.17,8.17,0,0,0-1.53.78c-13.36,7.63-26.17,4.23-36.51-4a26,26,0,0,0-4.68,5.75c6.09,2,10.1,8.47,16.24,10.7C61.5,53.82,71.05,49.18,80.4,43.13Z"/><path class="cls-7" d="M43.25,68.65c-4.3-2.39-7.67-6.35-11.94-8.81A25.93,25.93,0,0,0,66.07,75.29C58.27,75.73,50.1,73.08,43.25,68.65Z"/><path class="cls-8" d="M80.87,58.26c-13.62,8.59-32.82,7-46.42-5-1.28-1-2.85-1-4.51-.74a26.21,26.21,0,0,0,1.37,7.34c4.27,2.46,7.64,6.42,11.94,8.81,6.85,4.43,15,7.08,22.82,6.64A26,26,0,0,0,80.87,58.26Z"/><path class="cls-3" d="M34.45,53.24c13.6,12,32.8,13.61,46.42,5a25.84,25.84,0,0,0-.47-15.13c-9.35,6-18.9,10.69-30.54,5.7-6.14-2.23-10.15-8.69-16.24-10.7a25.69,25.69,0,0,0-3.7,13.33c0,.35,0,.69,0,1C31.6,52.29,33.17,52.28,34.45,53.24Z"/><path class="cls-9" d="M44.6,36.67c0,1.36.45,4.82-1.07,5.47a6.87,6.87,0,0,1-2.67.53c-1.27,0-6.68,3.28-6.79-.12C34,41.39,37,36.67,38.14,36c.9-.54,4.42-6.57,7.7-6.45C51.33,29.72,44.6,35.29,44.6,36.67Z"/><path class="cls-9" d="M60.27,32.58c-1.06.86-3.26,2.75-4.92,2.63-3.4-.24-1.42-3.11-2-3.86-.8-1-6.82-1-4.26-3.2.87-.76,6.31-1.67,7.66-1.67,1.92,0,7.52.33,9.51,2.94C69.54,33.79,61.33,31.7,60.27,32.58Z"/><path class="cls-10" d="M42.72,35.84c1,.84.6,2.91-.87,4.62S38.41,42.87,37.42,42s-.6-2.91.86-4.62S41.73,35,42.72,35.84Z"/><path class="cls-9" d="M48.67,33.38c-.45,0-1.36,1.14-1.92,3.74s-3.4,4.3-1.13,6.45,4,5.1,6.22,5.21a9.48,9.48,0,0,0,7.81-3.62c2.38-2.95,3.74-5.55,3.17-7.47s-.9-4.87-2.94-3.29-2.15,3.74-5.21,3-1.47-2.38-2.49-4S48.67,33.38,48.67,33.38Z"/><path class="cls-9" d="M33.73,46.06a15.3,15.3,0,0,1,4-.68c3.19-.15,1.59-1.81,4.64-.79s4.76,1.81,5.21,2.6,3.39.57,2.6,4.19-1.81,4.87-4.64,4.08-2.6-2.49-5.66-2-5.77,3.74-6.79,2.6-1.47-4.3-1.24-5.77S31.58,47.65,33.73,46.06Z"/><path class="cls-9" d="M39.84,55c-.36,0-4.3,2-4.3,2s-2.26.91-1.47,3.06.91,4.19,2.6,5.77.91,5.77,4.64,4.42,8-2.27,6.12-4.42a11.45,11.45,0,0,0-4.87-3.73c-2.72-1.36-2-2.72-1.13-3.74s4.07,4,5.66,2.83,4-2.94,2.83-3.62-1.36-.57-3.85-1S43.24,54.78,39.84,55Z"/><path class="cls-9" d="M55,50.82s-1.58-1.36-3.06.9-3.39,3.17-2,4.08,2.15,1.69,1.92,2.6-2.6,1.59.57,2.72,5.32,3.51,8,2.15,6.23-5.89,7.47-9.4,1.82-7.69-.22-9.51-5.21-.68-6.91,1.48A34.53,34.53,0,0,1,55,50.82Z"/><path class="cls-9" d="M70.07,31.57c-.73-.33-2-.68-4,1.47s-3.39,3-2.6,4.76-2.15,3.51,1.36,4.07a6,6,0,0,1,5,3.51c.34.8.34,5,2.15,4.19S78,42,76.74,39,72.56,32.71,70.07,31.57Z"/><path class="cls-9" d="M47.2,62.93a2.64,2.64,0,0,1,1.7-.79,4.41,4.41,0,0,1,3.62.56c1.7,1,1.47,2.38,3.62,2.49s3.4-.68,5,0,4,1.47,2.83,4.3-2.71,5.78-4.86,6-7.14-.34-8.83-.11-4.53-1.58-4.64-2.72,1.24-2.15,3.73-2.6,3.4-2.15,1.47-3.51-3.51-2.49-3.73-2.72S47.43,63.27,47.2,62.93Z"/><path class="cls-9" d="M70.63,51.38c-.34.12-4.07,3.74-3.28,7.13s4.19,4.87,5.21,3.17-2-3.39-.46-5.88,3.4-2.15,5.1-4.42,2.94-5.2,1.36-5.32-1.36,2.27-3.51,3.51A19,19,0,0,1,70.63,51.38Z"/><path class="cls-9" d="M80.48,51.38a8.53,8.53,0,0,1-.45,5.1c-1.14,2.26-1.59,6-3.17,5.77s-3.85-1.13-3.4-3.62,0-3.17,2.27-4.3S79,52.4,79.12,51.84,80.37,49.23,80.48,51.38Z"/><path class="cls-9" d="M66.22,60.44A6.57,6.57,0,0,0,64,62.59c-.79,1.36-1.13,1.92.23,3.28s-.45,2.6,1.58,2.94a6.29,6.29,0,0,0,4.87-1.35c.91-.8,4.64-3.74,2.72-4s-2.72,1.36-4.08.23a11.24,11.24,0,0,1-2.37-3.28Z"/><path class="cls-9" d="M64.86,70.51,63.5,72.89s-2.94,2.83-.79,2.49a10.89,10.89,0,0,0,5.32-2c1.7-1.24,5.2-2.94,5.43-4.19s-1.24-1.35-3.17-.45-2.83,2.38-3.62,2S66.22,70.51,64.86,70.51Z"/><path class="cls-9" d="M78.44,40.52s1,1.92.79,2.71-.34,1.93-1.58,1.93-1-.8-.45-1.59A5.9,5.9,0,0,0,78,41.65S77.65,40.74,78.44,40.52Z"/><path class="cls-9" d="M75.16,63.49A4.78,4.78,0,0,0,74,65.3a3.29,3.29,0,0,0-.23,2.27,1.29,1.29,0,0,0,1.81-.45c.68-1.14,2.27-2.61,2.27-3.29s-1.59-1-1.59-1Z"/><path class="cls-11" d="M72.22,17.72c-.32,1.08,1.21,1.51,2.25,1a2.74,2.74,0,0,0,1.46-2.5c-.08-1-.92-2.17-1.89-1.28A10.13,10.13,0,0,0,72.22,17.72Z"/><path class="cls-12" d="M73.12,17.79a10.31,10.31,0,0,1,1.82-2.74,1.36,1.36,0,0,1,.34-.23.87.87,0,0,0-1.25.11,10.13,10.13,0,0,0-1.82,2.74c-.25.84.62,1.28,1.51,1.22A.86.86,0,0,1,73.12,17.79Z"/><path class="cls-11" d="M86.14,39.1c-.77.83.41,1.89,1.54,1.93a2.71,2.71,0,0,0,2.42-1.58c.4-1,.15-2.36-1.11-2A10.16,10.16,0,0,0,86.14,39.1Z"/><path class="cls-12" d="M86.91,39.57a10.28,10.28,0,0,1,2.85-1.65,1.18,1.18,0,0,1,.4-.05A.88.88,0,0,0,89,37.4a10.28,10.28,0,0,0-2.85,1.65c-.6.65,0,1.43.8,1.76A.85.85,0,0,1,86.91,39.57Z"/><path class="cls-11" d="M34,18.17c-1-.59-1.77.78-1.58,1.9a2.72,2.72,0,0,0,2,2.05c1,.2,2.34-.32,1.73-1.49A10.22,10.22,0,0,0,34,18.17Z"/><path class="cls-12" d="M33.68,19a10.27,10.27,0,0,1,2.19,2.47,1.23,1.23,0,0,1,.13.38.86.86,0,0,0,.22-1.23A10.16,10.16,0,0,0,34,18.16c-.75-.45-1.4.27-1.56,1.15A.85.85,0,0,1,33.68,19Z"/><path class="cls-11" d="M43.15,17.09c.52.64,1.4-.11,1.54-.92a2,2,0,0,0-.9-1.9c-.66-.38-1.69-.34-1.55.61A7.48,7.48,0,0,0,43.15,17.09Z"/><path class="cls-12" d="M43.56,16.58a7.48,7.48,0,0,1-.91-2.21,1.5,1.5,0,0,1,0-.3.64.64,0,0,0-.44.8,7.36,7.36,0,0,0,.9,2.21c.41.49,1,.15,1.35-.41A.62.62,0,0,1,43.56,16.58Z"/><path class="cls-11" d="M17.08,30c-.87-.32-1.3.92-1,1.8a2.23,2.23,0,0,0,2,1.32c.86,0,1.83-.64,1.15-1.49A8.51,8.51,0,0,0,17.08,30Z"/><path class="cls-12" d="M17,30.78a8.36,8.36,0,0,1,2.16,1.63.88.88,0,0,1,.17.29.73.73,0,0,0,0-1A8.51,8.51,0,0,0,17.12,30c-.68-.25-1.08.45-1.07,1.18A.7.7,0,0,1,17,30.78Z"/><path class="cls-11" d="M12.78,45.73c-.93.07-.81,1.37-.15,2a2.25,2.25,0,0,0,2.34.41c.79-.36,1.42-1.34.46-1.83A8.64,8.64,0,0,0,12.78,45.73Z"/><path class="cls-12" d="M13,46.45a8.34,8.34,0,0,1,2.64.61,1,1,0,0,1,.27.2.72.72,0,0,0-.44-.94,8.34,8.34,0,0,0-2.64-.61c-.72,0-.81.85-.51,1.51A.71.71,0,0,1,13,46.45Z"/><path class="cls-11" d="M21.44,64c-.73.58.1,1.59,1,1.77a2.26,2.26,0,0,0,2.17-1c.45-.74.42-1.9-.65-1.77A8.68,8.68,0,0,0,21.44,64Z"/><path class="cls-12" d="M22,64.45a8.55,8.55,0,0,1,2.53-1,1,1,0,0,1,.34,0A.72.72,0,0,0,24,63a8.26,8.26,0,0,0-2.53,1c-.57.45-.2,1.16.43,1.54A.71.71,0,0,1,22,64.45Z"/><path class="cls-11" d="M29.44,80.71C29,82,30.78,82.65,32.09,82.18a3.31,3.31,0,0,0,2-2.91c0-1.28-.92-2.73-2.18-1.73A12.57,12.57,0,0,0,29.44,80.71Z"/><path class="cls-12" d="M30.53,80.88A12.57,12.57,0,0,1,33,77.71a1.49,1.49,0,0,1,.43-.25,1.07,1.07,0,0,0-1.53,0,12.68,12.68,0,0,0-2.46,3.18c-.37,1,.64,1.62,1.73,1.61A1,1,0,0,1,30.53,80.88Z"/><path class="cls-11" d="M51.64,87.12c.19.71,1.19.43,1.6-.19a1.75,1.75,0,0,0,0-1.88c-.39-.56-1.25-.9-1.49-.07A6.78,6.78,0,0,0,51.64,87.12Z"/><path class="cls-12" d="M52.16,86.86a6.75,6.75,0,0,1,.08-2.15.88.88,0,0,1,.11-.24.56.56,0,0,0-.66.48,6.75,6.75,0,0,0-.08,2.15c.15.55.79.5,1.26.16A.56.56,0,0,1,52.16,86.86Z"/><path class="cls-11" d="M54.92,91.2c.19.71,1.19.42,1.61-.19a1.79,1.79,0,0,0,0-1.89c-.4-.55-1.26-.89-1.49-.07A6.75,6.75,0,0,0,54.92,91.2Z"/><path class="cls-12" d="M55.45,90.93a6.48,6.48,0,0,1,.07-2.14,1.17,1.17,0,0,1,.11-.25A.58.58,0,0,0,55,89a6.53,6.53,0,0,0-.07,2.15c.15.55.78.5,1.25.16A.56.56,0,0,1,55.45,90.93Z"/><path class="cls-11" d="M48.31,91.14c0,.73,1,.73,1.59.26a1.76,1.76,0,0,0,.48-1.82c-.22-.65-1-1.21-1.41-.48A6.64,6.64,0,0,0,48.31,91.14Z"/><path class="cls-12" d="M48.88,91a6.85,6.85,0,0,1,.67-2,.74.74,0,0,1,.17-.21.57.57,0,0,0-.76.29,6.57,6.57,0,0,0-.67,2c0,.57.61.7,1.16.5A.57.57,0,0,1,48.88,91Z"/><path class="cls-11" d="M10.31,42.85c-.64,0-.56.94-.11,1.4a1.55,1.55,0,0,0,1.62.28c.54-.24,1-.91.31-1.25A5.92,5.92,0,0,0,10.31,42.85Z"/><path class="cls-12" d="M10.45,43.34a5.84,5.84,0,0,1,1.81.43.7.7,0,0,1,.19.13.49.49,0,0,0-.3-.64,5.71,5.71,0,0,0-1.82-.42c-.49,0-.55.58-.34,1A.49.49,0,0,1,10.45,43.34Z"/><path class="cls-11" d="M19.45,72.68c-.47.44.16,1.09.8,1.16a1.56,1.56,0,0,0,1.43-.8c.26-.54.17-1.33-.56-1.17A6,6,0,0,0,19.45,72.68Z"/><path class="cls-12" d="M19.87,73a5.8,5.8,0,0,1,1.67-.82,1,1,0,0,1,.23,0,.49.49,0,0,0-.64-.3,5.8,5.8,0,0,0-1.67.82c-.36.34-.07.8.39,1A.48.48,0,0,1,19.87,73Z"/><path class="cls-11" d="M93,70.19c.64,0,.66-.88.25-1.38a1.56,1.56,0,0,0-1.58-.44c-.56.19-1.06.81-.43,1.22A5.54,5.54,0,0,0,93,70.19Z"/><path class="cls-12" d="M92.93,69.69a5.81,5.81,0,0,1-1.76-.6.66.66,0,0,1-.17-.16.49.49,0,0,0,.23.67,5.83,5.83,0,0,0,1.77.61c.49,0,.61-.52.45-1A.49.49,0,0,1,92.93,69.69Z"/><path class="cls-11" d="M92.47,42.54c.57-.29.15-1.08-.44-1.33a1.55,1.55,0,0,0-1.6.36c-.4.44-.54,1.23.2,1.28A5.74,5.74,0,0,0,92.47,42.54Z"/><path class="cls-12" d="M92.15,42.14a5.74,5.74,0,0,1-1.84.31.71.71,0,0,1-.22-.05c0,.25.17.45.53.48a5.69,5.69,0,0,0,1.83-.31c.45-.23.29-.76-.08-1.1A.48.48,0,0,1,92.15,42.14Z"/><path class="cls-11" d="M92.58,54.49c.64-.09.49-1,0-1.4A1.53,1.53,0,0,0,91,52.93c-.52.28-.9,1-.21,1.28A5.94,5.94,0,0,0,92.58,54.49Z"/><path class="cls-12" d="M92.41,54a5.88,5.88,0,0,1-1.85-.29.68.68,0,0,1-.19-.11c-.07.24,0,.47.35.61a5.79,5.79,0,0,0,1.84.29c.49-.07.51-.62.27-1.07A.49.49,0,0,1,92.41,54Z"/><path class="cls-11" d="M88.7,63.8c.39,0,.4-.54.15-.84a.93.93,0,0,0-1-.27c-.34.11-.64.49-.26.74A3.72,3.72,0,0,0,88.7,63.8Z"/><path class="cls-12" d="M88.65,63.49a3.52,3.52,0,0,1-1.08-.37.45.45,0,0,1-.1-.09.3.3,0,0,0,.14.41,3.5,3.5,0,0,0,1.07.36c.31,0,.38-.31.28-.6A.29.29,0,0,1,88.65,63.49Z"/><path class="cls-11" d="M92.67,67.05c.39,0,.39-.54.15-.84a.93.93,0,0,0-1-.27c-.34.12-.65.5-.27.74A3.52,3.52,0,0,0,92.67,67.05Z"/><path class="cls-12" d="M92.61,66.74a3.5,3.5,0,0,1-1.07-.36.52.52,0,0,1-.11-.1.31.31,0,0,0,.15.41,3.43,3.43,0,0,0,1.07.37c.3,0,.37-.32.28-.61C92.9,66.62,92.81,66.75,92.61,66.74Z"/><path class="cls-11" d="M95.84,55.39c.39,0,.39-.53.15-.84a1,1,0,0,0-1-.27c-.34.12-.65.5-.27.74A3.52,3.52,0,0,0,95.84,55.39Z"/><path class="cls-12" d="M95.78,55.09a3.72,3.72,0,0,1-1.07-.37l-.11-.09a.3.3,0,0,0,.15.4,3.43,3.43,0,0,0,1.07.37c.3,0,.37-.32.28-.61A.31.31,0,0,1,95.78,55.09Z"/><path class="cls-11" d="M82.41,27.88c.25-.29-.16-.65-.55-.65a.94.94,0,0,0-.82.56c-.13.34,0,.81.4.68A3.61,3.61,0,0,0,82.41,27.88Z"/><path class="cls-12" d="M82.14,27.73a3.61,3.61,0,0,1-1,.59l-.14,0a.3.3,0,0,0,.4.15,3.46,3.46,0,0,0,1-.59c.2-.23,0-.49-.29-.6A.29.29,0,0,1,82.14,27.73Z"/><path class="cls-11" d="M86.18,27.31c.26-.29-.15-.64-.55-.65a1,1,0,0,0-.82.56c-.13.34,0,.82.4.68A3.61,3.61,0,0,0,86.18,27.31Z"/><path class="cls-12" d="M85.91,27.16a3.61,3.61,0,0,1-1,.59l-.13,0a.29.29,0,0,0,.4.15,3.61,3.61,0,0,0,1-.59c.2-.23,0-.49-.29-.6A.3.3,0,0,1,85.91,27.16Z"/><path class="cls-11" d="M85.92,24.08c.36-.4-.21-.89-.75-.9A1.31,1.31,0,0,0,84,24c-.18.46-.05,1.12.55.93A4.8,4.8,0,0,0,85.92,24.08Z"/><path class="cls-12" d="M85.55,23.87a5,5,0,0,1-1.33.81l-.19,0a.4.4,0,0,0,.55.2,4.69,4.69,0,0,0,1.34-.81c.27-.31,0-.67-.41-.82A.4.4,0,0,1,85.55,23.87Z"/><path class="cls-11" d="M78.45,17.14c.18-.35-.31-.6-.69-.51a.94.94,0,0,0-.66.74c0,.36.16.8.55.57A3.57,3.57,0,0,0,78.45,17.14Z"/><path class="cls-12" d="M78.15,17.05a3.57,3.57,0,0,1-.8.8.38.38,0,0,1-.13.06.31.31,0,0,0,.43.05,3.47,3.47,0,0,0,.8-.81c.14-.26-.12-.47-.42-.51A.3.3,0,0,1,78.15,17.05Z"/><path class="cls-11" d="M27.66,29.88c.34.18.59-.31.5-.69a.94.94,0,0,0-.75-.66c-.36,0-.79.17-.56.55A3.47,3.47,0,0,0,27.66,29.88Z"/><path class="cls-12" d="M27.74,29.58a3.69,3.69,0,0,1-.81-.8.61.61,0,0,1-.05-.12.3.3,0,0,0-.05.43,3.49,3.49,0,0,0,.81.79c.27.14.47-.12.51-.43A.29.29,0,0,1,27.74,29.58Z"/><path class="cls-11" d="M86.73,80.92c.28.27.65-.13.67-.52a1,1,0,0,0-.52-.85c-.34-.14-.82-.06-.7.37A3.57,3.57,0,0,0,86.73,80.92Z"/><path class="cls-12" d="M86.89,80.65a3.44,3.44,0,0,1-.54-1,.36.36,0,0,1,0-.14.31.31,0,0,0-.17.4,3.56,3.56,0,0,0,.55,1c.22.21.49,0,.61-.26A.29.29,0,0,1,86.89,80.65Z"/><path class="cls-11" d="M72.18,82.18c.28.27.66-.13.68-.52a.94.94,0,0,0-.53-.85c-.33-.14-.81-.06-.7.37A3.57,3.57,0,0,0,72.18,82.18Z"/><path class="cls-12" d="M72.35,81.91a3.56,3.56,0,0,1-.55-1,.78.78,0,0,1,0-.14.3.3,0,0,0-.16.4,3.3,3.3,0,0,0,.55,1c.21.21.49,0,.61-.26A.29.29,0,0,1,72.35,81.91Z"/><path class="cls-11" d="M73,85.17c-.67-.71-1.66.24-1.76,1.22a2.34,2.34,0,0,0,1.22,2.18c.81.4,2,.27,1.78-.85A9,9,0,0,0,73,85.17Z"/><path class="cls-12" d="M72.59,85.81a8.8,8.8,0,0,1,1.25,2.55,1.53,1.53,0,0,1,0,.36.76.76,0,0,0,.47-1,8.81,8.81,0,0,0-1.25-2.56c-.52-.55-1.23-.1-1.57.59A.75.75,0,0,1,72.59,85.81Z"/><path class="cls-11" d="M83.56,74.55c-.86-.45-1.48.78-1.25,1.73a2.35,2.35,0,0,0,1.87,1.66c.9.11,2-.41,1.4-1.39A8.92,8.92,0,0,0,83.56,74.55Z"/><path class="cls-12" d="M83.35,75.3a8.71,8.71,0,0,1,2,2,1,1,0,0,1,.14.33.76.76,0,0,0,.12-1.08,8.71,8.71,0,0,0-2-2c-.68-.35-1.2.31-1.29,1.07A.75.75,0,0,1,83.35,75.3Z"/><path class="cls-11" d="M28.19,17.68c-.75-.46-1.37.61-1.22,1.48a2.1,2.1,0,0,0,1.58,1.59c.8.15,1.81-.25,1.34-1.16A8.1,8.1,0,0,0,28.19,17.68Z"/><path class="cls-12" d="M28,18.34a7.79,7.79,0,0,1,1.69,1.91,1,1,0,0,1,.11.3.69.69,0,0,0,.17-1,8.1,8.1,0,0,0-1.7-1.91c-.58-.35-1.08.21-1.21.89A.66.66,0,0,1,28,18.34Z"/><path class="cls-11" d="M56.05,14.53c-.2-.47-.85-.19-1.07.27a1.22,1.22,0,0,0,.2,1.28c.32.34.93.49,1-.09A4.48,4.48,0,0,0,56.05,14.53Z"/><path class="cls-12" d="M55.72,14.75a4.75,4.75,0,0,1,.14,1.47.69.69,0,0,1,0,.17c.2,0,.36-.1.4-.39a4.39,4.39,0,0,0-.14-1.46c-.15-.36-.58-.27-.87,0A.4.4,0,0,1,55.72,14.75Z"/><path class="cls-11" d="M59.17,11.6c-.06-.67-1-.58-1.45-.1a1.61,1.61,0,0,0-.28,1.68c.27.55,1,1,1.31.3A6.07,6.07,0,0,0,59.17,11.6Z"/><path class="cls-12" d="M58.66,11.75a6.07,6.07,0,0,1-.42,1.88,1.16,1.16,0,0,1-.13.2.52.52,0,0,0,.66-.32,6.16,6.16,0,0,0,.42-1.89c0-.51-.61-.57-1.09-.35A.52.52,0,0,1,58.66,11.75Z"/><g class="cls-13"><path class="cls-14" d="M63.56,26.79A25.91,25.91,0,0,1,31.4,59,25.93,25.93,0,1,0,63.56,26.79Z"/></g></g></svg>