<svg xmlns="http://www.w3.org/2000/svg" xmlns:xlink="http://www.w3.org/1999/xlink" viewBox="0 0 106 101.33"><defs><style>.cls-1{mask:url(#mask);filter:url(#luminosity-noclip-2);}.cls-2{mix-blend-mode:multiply;fill:url(#linear-gradient);}.cls-3{fill:#458df4;}.cls-4{opacity:0.2;}.cls-5{fill:#a6caff;}.cls-6{fill:#66acff;}.cls-7{fill:#2b5dc1;}.cls-8{fill:#2146a3;}.cls-9{fill:#3c79dd;}.cls-10{fill:#dcecff;}.cls-11{mask:url(#mask-2);}.cls-12{fill:url(#linear-gradient-2);}.cls-13{fill:#fff;opacity:0.7;}.cls-14{filter:url(#luminosity-noclip);}</style><filter id="luminosity-noclip" x="22.74" y="-7755.67" width="56.38" height="32766" filterUnits="userSpaceOnUse" color-interpolation-filters="sRGB"><feFlood flood-color="#fff" result="bg"/><feBlend in="SourceGraphic" in2="bg"/></filter><mask id="mask" x="22.74" y="-7755.67" width="56.38" height="32766" maskUnits="userSpaceOnUse"><g class="cls-14"/></mask><linearGradient id="linear-gradient" x1="34.57" y1="41.04" x2="83.21" y2="78.89" gradientUnits="userSpaceOnUse"><stop offset="0"/><stop offset="0.12" stop-color="#030303"/><stop offset="0.23" stop-color="#0e0e0e"/><stop offset="0.33" stop-color="#202020"/><stop offset="0.43" stop-color="#393939"/><stop offset="0.53" stop-color="#5a5a5a"/><stop offset="0.61" stop-color="#7a7a7a"/><stop offset="1" stop-color="#fff"/></linearGradient><filter id="luminosity-noclip-2" x="22.74" y="25.84" width="56.38" height="56.38" filterUnits="userSpaceOnUse" color-interpolation-filters="sRGB"><feFlood flood-color="#fff" result="bg"/><feBlend in="SourceGraphic" in2="bg"/></filter><mask id="mask-2" x="22.74" y="25.84" width="56.38" height="56.38" maskUnits="userSpaceOnUse"><g class="cls-1"><path class="cls-2" d="M58.42,25.84A28.76,28.76,0,0,1,30.81,62.68a29,29,0,0,1-8.07-1.15c3.22,11,14.47,20.69,27.61,20.69a28.77,28.77,0,0,0,8.07-56.38Z"/></g></mask><linearGradient id="linear-gradient-2" x1="34.57" y1="41.04" x2="83.21" y2="78.89" gradientUnits="userSpaceOnUse"><stop offset="0"/><stop offset="0.57"/><stop offset="0.61"/><stop offset="1" stop-color="#404040"/></linearGradient></defs><g id="Layer_2" data-name="Layer 2"><path class="cls-3" d="M31.85,23A3.85,3.85,0,1,1,28,19.18,3.85,3.85,0,0,1,31.85,23Z"/><path class="cls-4" d="M29,19.25a3.85,3.85,0,0,1-3.75,6.38A3.85,3.85,0,1,0,29,19.25Z"/><path class="cls-3" d="M37.83,88.47A3.85,3.85,0,1,1,34,84.62,3.85,3.85,0,0,1,37.83,88.47Z"/><path class="cls-4" d="M34.93,84.69a3.84,3.84,0,0,1-3.75,6.38,3.85,3.85,0,1,0,3.75-6.38Z"/><path class="cls-3" d="M80.76,25.89A4.86,4.86,0,1,1,75.9,21,4.85,4.85,0,0,1,80.76,25.89Z"/><path class="cls-4" d="M77.24,21.21a4.85,4.85,0,0,1-3.52,8.21,4.92,4.92,0,0,1-1.22-.16,4.86,4.86,0,0,0,8.38-3.35A4.85,4.85,0,0,0,77.24,21.21Z"/><path class="cls-5" d="M88.64,38.78a4.86,4.86,0,1,1-4.86-4.86A4.86,4.86,0,0,1,88.64,38.78Z"/><path class="cls-4" d="M85.05,34.1a4.86,4.86,0,0,1-3.52,8.21,4.92,4.92,0,0,1-1.22-.16,4.86,4.86,0,1,0,4.74-8Z"/><path class="cls-5" d="M27,81.73a4.86,4.86,0,1,1-4.86-4.86A4.85,4.85,0,0,1,27,81.73Z"/><path class="cls-4" d="M23.37,77.05a4.8,4.8,0,0,1,1.35,3.35,4.87,4.87,0,0,1-4.86,4.86,4.92,4.92,0,0,1-1.22-.16,4.86,4.86,0,1,0,4.73-8Z"/><path class="cls-6" d="M65.56,28.94a3.09,3.09,0,0,0-1.5.6c-.81.82.82,3.26,2.45,4.89,1.62,3.25-.82,8.14-5.7,6.51-4.07-2.44-3.26-8.14-5.7-9.77-7.33-3.26,0,9-4.07,10.59-9,2.44-1.63-9-5.7-13.85H42.08c-1.63,2.45-2.44,8.15-4.89,4.89A5,5,0,0,1,35,29a29.21,29.21,0,0,0-3.39,2.52,5.76,5.76,0,0,1,3.11,3.71c0,2.44-3.25,5.7-.81,8.14,4.07,2.45,4.88-4.88,8.14-3.25,4.89,1.63,0,8.95,1.63,13,.81.82,3.26,2.45,4.88,2.45,4.07-1.63,1.63-7.33,4.07-8.15,4.89-2.44,5.7,9,12.22,5.7,3.25-1.62,1.63-6.51,3.25-8.95,1.63-3.26,5.7,3.25,7.33.81a6.77,6.77,0,0,0,1.74-2A28.83,28.83,0,0,0,65.56,28.94Z"/><path class="cls-7" d="M38.6,79.61a9.11,9.11,0,0,0-3.8-2.06A28.42,28.42,0,0,0,38.6,79.61Z"/><path class="cls-8" d="M67.32,73.51C63.25,75.14,60,76,55.92,78.39c-2.44,2.45-5.7-4.07-9.77-.81a9.46,9.46,0,0,1-2.66,3.71A28.76,28.76,0,0,0,73.83,70C71,69.31,68.81,72.76,67.32,73.51Z"/><path class="cls-7" d="M69,63.74c-.82,1.63,0,5.7-1.63,5.7-4.88,0-6.51,1.63-10.58,4.88-3.26,2.45-4.08-4.07-6.52-4.07-4.07-.81-4.88,8.14-8.95,3.26-1.63-1.63-.82-4.89-1.63-6.51-2.45-1.63-4.89,0-6.52.81-5.7,3.26-6.51-2.44-7.32-7.33-.39-1.15-2-1.93-3.75-2A28.77,28.77,0,0,0,34.8,77.55a9.11,9.11,0,0,1,3.8,2.06,28.21,28.21,0,0,0,4.89,1.68,9.46,9.46,0,0,0,2.66-3.71c4.07-3.26,7.33,3.26,9.77.81C60,76,63.25,75.14,67.32,73.51c1.49-.75,3.66-4.2,6.51-3.54A28.67,28.67,0,0,0,77,64.22C74.09,63.29,71.31,61.38,69,63.74Z"/><path class="cls-9" d="M39.64,67c.81,1.62,0,4.88,1.63,6.51,4.07,4.88,4.88-4.07,8.95-3.26,2.44,0,3.26,6.52,6.52,4.07,4.07-3.25,5.7-4.88,10.58-4.88,1.63,0,.81-4.07,1.63-5.7,2.36-2.36,5.14-.45,8,.48a28.69,28.69,0,0,0,2.13-10.87v0c-2.77-.62-5.72-2.77-6.92-1C69.76,54,73,64.55,67.32,62.11c-2.44-.81-4.88-3.26-8.14-2.44-2.44,1.63,0,5.7-2.44,7.33C51,68.62,52.66,58,47,61.3c-2.45,1.62-2.45,7.32-6.52,5.7-8.14-3.26,0-12.22-3.26-16.29-2.44-4.88-6.51,9.77-10.58,3.26-3.26-4.89,4.07-9,1.63-13.84a3.64,3.64,0,0,0-2.36-1.87,28.67,28.67,0,0,0-3.83,20.2c1.72.09,3.36.87,3.75,2,.81,4.89,1.62,10.59,7.32,7.33C34.75,67,37.19,65.37,39.64,67Z"/><path class="cls-3" d="M26.61,54c4.07,6.51,8.14-8.14,10.58-3.26,3.26,4.07-4.88,13,3.26,16.29,4.07,1.62,4.07-4.08,6.52-5.7C52.66,58,51,68.62,56.74,67c2.44-1.63,0-5.7,2.44-7.33,3.26-.82,5.7,1.63,8.14,2.44C73,64.55,69.76,54,72.2,52.34c1.2-1.79,4.15.36,6.92,1A28.55,28.55,0,0,0,77.2,43a6.77,6.77,0,0,1-1.74,2c-1.63,2.44-5.7-4.07-7.33-.81-1.62,2.44,0,7.33-3.25,8.95-6.52,3.26-7.33-8.14-12.22-5.7-2.44.82,0,6.52-4.07,8.15-1.62,0-4.07-1.63-4.88-2.45-1.63-4.07,3.26-11.39-1.63-13-3.26-1.63-4.07,5.7-8.14,3.25-2.44-2.44.81-5.7.81-8.14a5.76,5.76,0,0,0-3.11-3.71,29,29,0,0,0-5.76,6.73,3.64,3.64,0,0,1,2.36,1.87C30.68,45,23.35,49.08,26.61,54Z"/><path class="cls-10" d="M56.74,29.54c2.09,1.58,2.5-.91,2.53-3.52a28.59,28.59,0,0,0-8.92-1.43A29.07,29.07,0,0,0,47,24.8c.33,1.33.52,2.78.81,3.93C51,26.29,52.66,27.1,56.74,29.54Z"/><path class="cls-5" d="M66.51,34.43c-1.63-1.63-3.26-4.07-2.45-4.89a3.09,3.09,0,0,1,1.5-.6A28.16,28.16,0,0,0,59.27,26c0,2.61-.44,5.1-2.53,3.52-4.08-2.44-5.7-3.25-9-.81-.29-1.15-.48-2.6-.81-3.93A28.55,28.55,0,0,0,35,29a5,5,0,0,0,2.16,3.79c2.45,3.26,3.26-2.44,4.89-4.89h3.26C49.41,32.8,42.08,44.2,51,41.76c4.07-1.63-3.26-13.85,4.07-10.59,2.44,1.63,1.63,7.33,5.7,9.77C65.69,42.57,68.13,37.68,66.51,34.43Z"/><g class="cls-11"><path class="cls-12" d="M58.42,25.84A28.76,28.76,0,0,1,30.81,62.68a29,29,0,0,1-8.07-1.15c3.22,11,14.47,20.69,27.61,20.69a28.77,28.77,0,0,0,8.07-56.38Z"/></g><path class="cls-13" d="M38.94,33.86c.86,1.15,0,3.29-2,4.79s-4.28,1.78-5.15.64,0-3.29,2-4.78S38.07,32.72,38.94,33.86Z"/></g></svg>