<svg xmlns="http://www.w3.org/2000/svg" xmlns:xlink="http://www.w3.org/1999/xlink" viewBox="0 0 106 101.33"><defs><style>.cls-1{mask:url(#mask);filter:url(#luminosity-noclip-2);}.cls-2{mix-blend-mode:multiply;fill:url(#linear-gradient);}.cls-3{fill:#37b5a5;}.cls-4{fill:#4dcebb;}.cls-5{fill:#36eac7;}.cls-6{fill:#92ffea;}.cls-7{fill:#55ffde;}.cls-8{fill:#228778;}.cls-9{mask:url(#mask-2);}.cls-10{fill:url(#linear-gradient-2);}.cls-11{fill:#fff;opacity:0.7;}.cls-12{filter:url(#luminosity-noclip);}</style><filter id="luminosity-noclip" x="25.39" y="-7891" width="56.38" height="32766" filterUnits="userSpaceOnUse" color-interpolation-filters="sRGB"><feFlood flood-color="#fff" result="bg"/><feBlend in="SourceGraphic" in2="bg"/></filter><mask id="mask" x="25.39" y="-7891" width="56.38" height="32766" maskUnits="userSpaceOnUse"><g class="cls-12"/></mask><linearGradient id="linear-gradient" x1="37.15" y1="36.94" x2="85.79" y2="74.78" gradientUnits="userSpaceOnUse"><stop offset="0"/><stop offset="0.12" stop-color="#030303"/><stop offset="0.23" stop-color="#0e0e0e"/><stop offset="0.33" stop-color="#202020"/><stop offset="0.43" stop-color="#393939"/><stop offset="0.53" stop-color="#5a5a5a"/><stop offset="0.61" stop-color="#7a7a7a"/><stop offset="1" stop-color="#fff"/></linearGradient><filter id="luminosity-noclip-2" x="25.39" y="21.66" width="56.38" height="56.38" filterUnits="userSpaceOnUse" color-interpolation-filters="sRGB"><feFlood flood-color="#fff" result="bg"/><feBlend in="SourceGraphic" in2="bg"/></filter><mask id="mask-2" x="25.39" y="21.66" width="56.38" height="56.38" maskUnits="userSpaceOnUse"><g class="cls-1"><path class="cls-2" d="M61.07,21.66A28.76,28.76,0,0,1,25.39,57.34,28.77,28.77,0,1,0,61.07,21.66Z"/></g></mask><linearGradient id="linear-gradient-2" x1="37.15" y1="36.94" x2="85.79" y2="74.78" gradientUnits="userSpaceOnUse"><stop offset="0"/><stop offset="0.57"/><stop offset="0.61"/><stop offset="1" stop-color="#404040"/></linearGradient></defs><g id="Layer_2" data-name="Layer 2"><path class="cls-3" d="M28.44,57.21a12.42,12.42,0,0,0-3.5-1.62,28.56,28.56,0,0,0,4,9.51C30.44,62,31.75,59.28,28.44,57.21Z"/><path class="cls-4" d="M55.31,62.91C39,71.05,35,52.33,25.19,44.18a1.86,1.86,0,0,0-.45-.3,29.05,29.05,0,0,0-.51,5.39,28.6,28.6,0,0,0,.71,6.32,12.42,12.42,0,0,1,3.5,1.62c3.31,2.07,2,4.77.54,7.89a28.88,28.88,0,0,0,11,9.81c8.65-7.91,19.67-7.7,30-5.48a5.5,5.5,0,0,1,2.7.82A28.79,28.79,0,0,0,80.6,57.37a24.3,24.3,0,0,0-9-5.86C62.64,48.26,61.83,59.65,55.31,62.91Z"/><path class="cls-3" d="M40,74.91a28.74,28.74,0,0,0,32.72-4.66,5.5,5.5,0,0,0-2.7-.82C59.62,67.21,48.6,67,40,74.91Z"/><path class="cls-3" d="M37.4,40.93c2.74-3.84-1.9-6.94-6.72-9.8a29,29,0,0,0-4.31,7.28C31.13,41.85,34.64,47,37.4,40.93Z"/><path class="cls-5" d="M81.39,44.6c-5.67,1.82-11.39,1.24-14.68-2C63.6,38.83,70.94,36,76,32A29.12,29.12,0,0,0,72,27.65,11.57,11.57,0,0,0,63.45,32c-4.07,7.33-2.44,16.29-9,20.36-4.07,2.44-7.33-.82-9.77-3.26-4.89-6.51-.82-17.91-9-22a7.22,7.22,0,0,0-.72-.29,28.86,28.86,0,0,0-4.37,4.33c4.82,2.86,9.46,6,6.72,9.8-2.76,6.07-6.27.92-11-2.52a29,29,0,0,0-1.63,5.47,1.86,1.86,0,0,1,.45.3C35,52.33,39,71.05,55.31,62.91c6.52-3.26,7.33-14.65,16.29-11.4a24.3,24.3,0,0,1,9,5.86,28.72,28.72,0,0,0,.79-12.77Z"/><path class="cls-3" d="M66.71,42.56c3.29,3.28,9,3.86,14.68,2A28.64,28.64,0,0,0,76,32C70.94,36,63.6,38.83,66.71,42.56Z"/><path class="cls-6" d="M47.17,32.79c0,2.44,3.26,4.88,6.51,4.07,5.69-3.16,4.51-9.74,4.08-16A28.76,28.76,0,0,0,53,20.5a28.46,28.46,0,0,0-5,.44C48.54,24.48,46.68,29.36,47.17,32.79Z"/><path class="cls-7" d="M57.76,20.9c.43,6.22,1.61,12.8-4.08,16-3.25.81-6.51-1.63-6.51-4.07-.49-3.43,1.37-8.31.82-11.85A28.57,28.57,0,0,0,35.05,26.8a7.22,7.22,0,0,1,.72.29c8.14,4.07,4.07,15.47,9,22,2.44,2.44,5.7,5.7,9.77,3.26,6.51-4.07,4.88-13,9-20.36A11.57,11.57,0,0,1,72,27.65,28.74,28.74,0,0,0,57.76,20.9Z"/><path class="cls-4" d="M48.51,60.13c-.46,1.19-2.58,1.48-4.74.65s-3.54-2.47-3.08-3.66,2.58-1.48,4.74-.65S49,58.94,48.51,60.13Z"/><path class="cls-5" d="M55.15,45.55c.39,1.66-1.13,3.43-3.39,4s-4.39-.4-4.77-2.06,1.13-3.43,3.39-3.95S54.77,43.89,55.15,45.55Z"/><path class="cls-3" d="M71.09,59.78a3,3,0,1,1-1.26-4.09A3,3,0,0,1,71.09,59.78Z"/><path class="cls-8" d="M57.49,71.82c.06.84-1.22,1.61-2.86,1.73s-3-.48-3.08-1.32,1.23-1.62,2.87-1.73S57.43,71,57.49,71.82Z"/><path class="cls-6" d="M45.4,24.83c.38.75-.49,2-1.95,2.72s-3,.75-3.35,0,.49-2,1.95-2.72S45,24.08,45.4,24.83Z"/><path class="cls-5" d="M75,40.08c.06.84-1.21,1.62-2.85,1.75s-3-.46-3.08-1.3,1.21-1.62,2.85-1.75S75,39.24,75,40.08Z"/><g class="cls-9"><path class="cls-10" d="M61.07,21.66A28.76,28.76,0,0,1,25.39,57.34,28.77,28.77,0,1,0,61.07,21.66Z"/></g><path class="cls-11" d="M46.12,28.47c.86,1.14,0,3.28-2,4.78s-4.28,1.79-5.15.64,0-3.28,2-4.78S45.25,27.33,46.12,28.47Z"/></g></svg>