<svg xmlns="http://www.w3.org/2000/svg" viewBox="0 0 151.89 147.54"><defs><style>.cls-1{fill:#fff;}.cls-1,.cls-2{fill-rule:evenodd;}.cls-2,.cls-3,.cls-4{fill:#040d03;}.cls-3{font-size:19.1px;}.cls-3,.cls-4{font-family:OpenSans-ExtraboldItalic, Open Sans;font-weight:800;font-style:italic;}.cls-4{font-size:5.26px;letter-spacing:0.18em;}.cls-5{letter-spacing:0.1em;}.cls-6{letter-spacing:0.1em;}</style></defs><g id="OBJECTS"><path class="cls-1" d="M77.28,116.89A47.49,47.49,0,1,0,29.78,69.4,47.58,47.58,0,0,0,77.28,116.89Z"/><path class="cls-2" d="M111.22,44.34s-.7-.16-.5.4a8.77,8.77,0,0,1,.69,3.18c.11,1.92.69,1.36,1.66,2.8s.06,2.77.59,3.36,1.36,2.09.86,3-1-.19-1.36-.17-.89,1.41-.43,3.11.87,2.9.39,4.45a3.9,3.9,0,0,0,.07,3.27,6.56,6.56,0,0,1-.92,5.36c-1.23,1.92-2,3.15-2.15,4.72s-1,2-1.29,1.14-.89-1.94-1.61-2,.5,1.29.08,2.46-1.23,1.78-1.24,2.94-2.46,4.2-3.91,5a5.52,5.52,0,0,1-3.85.4c-.51-.27-.29,1.11,1.38,1s2.76-.69,3.07-.29-.67.47-.87,1-.15,1.11-1,1.48-1.45.48-1.24.9,2.6.49,2,3-1.86,2.22-2.86,3.87-2.14,2.49-4.55,3.34-3,.64-4.94,1.87-4.55-.32-5.94-.48-3,0-3.74-.75-.83-1.92-1.47-2-.42.93-.25,1.7-1.58-.26-2.36.3a3.27,3.27,0,0,1-3.22.37c-1.55-.48-1.3.72-.58,1.31s-.18,1.8-2.8,1.27-4.08-1.22-7.69-.92-3.2-2.34-5.88-2.59-5.31-1-6.64-3.42-2.91-.85-4.38-2.83-1.67-2.48-2.44-2.32-.84,2.08,1.36,3.26,2.6,2.21,2.85,4.56,2.28,2.24,3.3,3.63.81,2.91,3.08,3.39,3.42.51,4.08,1.63,2.33,1.39,4.58,1.12,3.44,1.84,5.58,2,3.1-.69,5.54.29,3.64.51,4.77-.26a4.83,4.83,0,0,1,3.14-.67c.8,0,.86-1.23-1.44-1.52s-4.64.77-6.3.32-2.91-.67-4.25.21a2.84,2.84,0,0,1-3.49-.4c-.86-.7-1.34-.28-2.12-.55s.5-1.63,1.74-1.19,1.36.83,2.78.44,1.9.31,2.62.47a4,4,0,0,0,1.75-.18,2.62,2.62,0,0,1,2.25.29c.84.61,1.33.13,2.28-.32a2.78,2.78,0,0,1,2.69.3c.87.49,1.61-.39,2.27-.42s.56.65,1.65.71,1.34-.8,2-.31.33,1.25-1.08,1.41-.92,1.41.8.79S88,110.74,91,111s2.3-1.15,3.71-1.85,3.16-.5,4.11-1.89,1.75-1.92,4.33-2.64,1.85-2.7,3.21-3.77,3.69-1.52,5.33-3.23.75-3.58,1.69-5.18,2.11-2.35,3.55-4.78.78-2.45-.52-2-2-.13-1.83-1.92-.53-5.26.74-7.07,1.56-2,1.73-3.29,1.16.14,1.55,1.53,1.75,0,1.86-2-.84-3.9.16-6.54-.69-3.12-.47-4.81a9.8,9.8,0,0,0-.5-5.9c-1-2.53-2.41-3.17-2.66-4.77s-1.5-.25-.5,1.17,2.36,1.84,3,4.48-.36,4.41-.5,5.24-1.49.32-.83-1.84,1.08-4-.53-5.5-2.46-1.39-2.52-3.82-2.14-2-2.41-2.91-.11-3-1.49-3.4Zm-7.06,49.53a3.39,3.39,0,0,1,1-1.56,2.46,2.46,0,0,1,1.7-.65c.45.09.58.57.17,1s0,.94-.68,1.29-.92.84-1.5.67-.71-.38-.69-.76Zm-4.43,9.89c.86.52-.75,1-1.17.73s0-.73-.65-1.4-.07-1.91,1-2.35,1.16-1.2,2.66-1.52,2,1.16,1.72,1.52-.36-.36-1-.57-2.74.89-3.08,2a1.4,1.4,0,0,0,.61,1.63Zm-41.28,4.12c0-.48.37-.83.77-.73s.76.89.68,1.49-.64,1.08-1,.52a2.2,2.2,0,0,1-.4-1.28Zm-10.71-6.24c.25-.16.32-.36.65.12s2.67.1,3.55,1.25.47,3.23,1.89,3.23,2.41-.19,3.74,1,.31,2.8-.11,2-1-2.29-2.77-2.27-3.09-.25-3.93-1.87-1.87-1.8-2.7-2.45S47.74,101.64,47.74,101.64Z"/><path class="cls-2" d="M69.18,91.14A14.5,14.5,0,0,0,61,90.37c-4.11.85-2.69,4.83.55,6.65s8.6,1.71,10-.16S71.84,92.4,69.18,91.14Z"/><path class="cls-2" d="M72,98.22s-.11-.56-.77-.21a10.44,10.44,0,0,1-5.88,1.49c-2.72-.32-2.61-1.31-3.92-1.71a4.54,4.54,0,0,1-2.88-2.61c-.47-1.23-.8.48,0,2s2.74,1.15,3.27,2.27,2.64,1.41,5,.67,2.55,0,3.83-.33S72.15,98.79,72,98.22Z"/><path class="cls-2" d="M80.56,98.27a11.42,11.42,0,0,1,6.6-4.43c4.24-.88,3.91-2.21,7.07-1.71s5.39.7,5.55,2.73-2.33,2.8-3.16,4.21-4,2.33-5.91,2.62-2.11,2.11-3.58,1.6-2.58-1.47-4.63-1.12S79.45,100,80.56,98.27Z"/><path class="cls-2" d="M97.17,84.71A9.41,9.41,0,0,1,100,80.33c1.52-1.23,3.52-2.11,4.77-1.84s1.61,1.6.47,2.83S105.16,84,103.3,85s-2.58,2.35-4.18,1.87S97.12,85.75,97.17,84.71Z"/><path class="cls-2" d="M97.28,78A5.75,5.75,0,0,1,99,75.26a4.26,4.26,0,0,1,3-1.15c.77.17,1,1,.29,1.76s0,1.64-1.19,2.25-1.6,1.46-2.59,1.16S97.25,78.61,97.28,78Z"/><path class="cls-2" d="M107.16,62.06a6.94,6.94,0,0,0-2,3.67c-.39,2.09,1.91,2.22,3.47,1.07s2.59-3.68,1.93-4.73S108.33,61.06,107.16,62.06Z"/><path class="cls-2" d="M111.51,62.46s-.3-.06-.26.32a5,5,0,0,1-.42,3c-.71,1.21-1.18,1-1.65,1.49a2.43,2.43,0,0,1-1.9.82c-.71,0,.09.48,1,.39s1.13-1,1.8-1.08,1.24-1,1.35-2.23.52-1.18.6-1.85S111.83,62.5,111.51,62.46Z"/><path class="cls-2" d="M115.65,78.45a6.84,6.84,0,0,0,.06,4.16c.7,2,2.78,1.07,3.58-.67s.42-4.42-.68-5S116.18,77,115.65,78.45Z"/><path class="cls-2" d="M132.08,57.61c9.17-.86,14.92-.32,15.58,1.87,1.64,5.4-28.32,18.77-66.93,29.87S9.5,105.07,7.85,99.67C7,96.8,15,91.68,28.57,85.85l.21.55c-8.72,4.15-13.66,7.69-13,9.83,1.45,4.76,30.27.68,64.38-9.12s60.58-21.62,59.13-26.39c-.41-1.36-3.06-2-7.42-2C131.93,58.37,132,58,132.08,57.61Z"/><path class="cls-1" d="M123,56.62c14.35-2.18,23.77-2.12,24.63.72,1.64,5.4-28.32,18.77-66.93,29.87S9.5,102.93,7.85,97.53c-.93-3.07,8.4-8.74,23.74-15.1.05.16.09.32.14.47-10.53,4.73-16.68,8.82-16,11.19C17.22,98.86,46,94.78,80.15,85s60.58-21.62,59.13-26.39c-.64-2.11-6.65-2.48-16.1-1.4Z"/><path class="cls-2" d="M102.14,21.59a2,2,0,0,1,3.85,0c.26,1.19.46,2.41.73,3.61a4,4,0,0,0,.3.92,3.75,3.75,0,0,0,.93.3c1.19.27,2.41.47,3.61.73a2,2,0,0,1,0,3.85c-1.2.27-2.42.47-3.61.74a3.75,3.75,0,0,0-.93.3,4,4,0,0,0-.3.92c-.27,1.2-.47,2.41-.73,3.61a2,2,0,0,1-3.85,0c-.26-1.2-.46-2.41-.73-3.61a4,4,0,0,0-.3-.92,3.62,3.62,0,0,0-.93-.3c-1.19-.27-2.41-.47-3.61-.74a2,2,0,0,1,0-3.85c1.2-.26,2.42-.46,3.61-.73a3.62,3.62,0,0,0,.93-.3,4,4,0,0,0,.3-.92C101.68,24,101.88,22.78,102.14,21.59Z"/><path class="cls-1" d="M104.15,21.34a.42.42,0,0,1,.82,0c1.43,6.56.19,5.33,6.75,6.76a.41.41,0,0,1,0,.81c-6.56,1.43-5.32.19-6.75,6.76a.42.42,0,0,1-.82,0c-1.43-6.57-.19-5.33-6.75-6.76a.41.41,0,0,1,0-.81C104,26.67,102.72,27.9,104.15,21.34Z"/><path class="cls-2" d="M94.85,32.25a.22.22,0,0,1,.22-.17.23.23,0,0,1,.22.17c.76,3.51.1,2.85,3.61,3.61a.23.23,0,0,1,.17.22.22.22,0,0,1-.17.22c-3.51.76-2.85.1-3.61,3.61a.24.24,0,0,1-.22.18.23.23,0,0,1-.22-.18c-.76-3.51-.1-2.85-3.61-3.61a.22.22,0,0,1-.17-.22.23.23,0,0,1,.17-.22C94.75,35.1,94.09,35.76,94.85,32.25Z"/><text class="cls-3" transform="translate(46.72 78.44) rotate(-16.28)">SPACE</text><text class="cls-4" transform="translate(50.79 84.97) rotate(-16.28)">CS<tspan class="cls-5" x="8.04" y="0">S </tspan><tspan x="13.34" y="0">ZE</tspan><tspan class="cls-6" x="20.97" y="0">N </tspan><tspan x="27.54" y="0">GARDE</tspan><tspan class="cls-6" x="49.35" y="0">N</tspan></text></g></svg>